<?xml version="1.0" standalone="no"?>
<!DOCTYPE svg PUBLIC "-//W3C//DTD SVG 20010904//EN"
 "http://www.w3.org/TR/2001/REC-SVG-20010904/DTD/svg10.dtd">
<svg version="1.0" xmlns="http://www.w3.org/2000/svg"
 width="688.000000pt" height="612.000000pt" viewBox="0 0 688.000000 612.000000"
 preserveAspectRatio="xMidYMid meet">

<g transform="translate(0.000000,612.000000) scale(0.100000,-0.100000)"
fill="#00c281" stroke="none">
<path d="M4713 6083 c-20 -101 -7 -154 70 -267 36 -53 37 -57 16 -51 -53 17
-182 88 -218 120 -42 38 -108 71 -186 91 -48 13 -315 20 -315 9 0 -21 65 -127
93 -152 66 -58 133 -76 317 -83 l165 -7 115 -56 115 -55 -100 -1 c-170 -2
-271 -27 -318 -79 -29 -32 -9 -55 70 -81 127 -42 382 -35 500 14 19 8 44 15
55 15 19 0 206 -128 207 -141 1 -3 -25 3 -56 15 -46 16 -83 20 -178 21 -110 0
-125 -2 -177 -27 -32 -15 -58 -31 -58 -37 0 -5 16 -23 35 -38 37 -31 104 -56
194 -73 60 -11 266 -14 356 -5 l60 6 64 -60 c36 -34 62 -63 59 -66 -3 -3 -32
2 -64 10 -71 19 -231 22 -294 5 -25 -6 -64 -23 -88 -37 -41 -23 -42 -26 -30
-46 18 -29 126 -81 207 -102 90 -23 258 -36 363 -28 87 6 89 6 118 -22 36 -35
85 -104 78 -110 -3 -3 -27 4 -54 16 -72 31 -142 39 -241 29 -85 -9 -191 -39
-227 -65 -45 -33 41 -92 190 -131 83 -22 128 -27 276 -31 l178 -5 23 -32 c37
-48 80 -126 70 -126 -4 0 -42 14 -83 32 -61 26 -92 32 -165 35 -96 4 -225 -20
-233 -44 -2 -7 20 -37 50 -66 47 -47 66 -57 173 -96 80 -28 155 -47 224 -56
70 -9 113 -20 130 -33 24 -18 88 -159 77 -169 -3 -3 -24 8 -48 25 -88 60 -105
65 -240 70 -135 5 -158 -1 -158 -40 0 -29 96 -119 174 -163 86 -48 197 -91
284 -111 l68 -15 27 -104 c15 -57 27 -118 27 -137 l0 -34 -75 74 c-50 49 -95
82 -138 103 -67 31 -181 58 -194 45 -11 -11 15 -94 42 -134 71 -104 257 -257
346 -284 23 -6 43 -17 44 -22 7 -24 12 -256 5 -256 -4 0 -28 35 -53 79 -26 44
-63 92 -86 110 -42 34 -148 91 -168 91 -16 0 -27 -60 -18 -102 17 -79 125
-253 213 -345 38 -40 75 -73 82 -73 10 0 12 -22 7 -92 -6 -100 -25 -194 -37
-181 -4 4 -17 38 -29 74 -24 73 -77 168 -119 212 -38 40 -102 73 -112 57 -30
-48 -12 -186 40 -316 35 -88 111 -209 142 -225 17 -9 19 -17 14 -47 -6 -44
-77 -242 -86 -242 -3 0 -16 46 -29 102 -14 65 -35 126 -57 165 -34 61 -84 113
-109 113 -22 0 -48 -96 -48 -179 0 -94 20 -164 84 -301 30 -63 48 -113 45
-125 -3 -11 -26 -52 -50 -90 l-46 -70 0 66 c0 124 -42 259 -96 310 -31 29 -46
17 -75 -59 -45 -117 -34 -334 22 -470 l21 -51 -55 -63 c-109 -124 -109 -124
-101 -103 4 11 9 70 12 130 3 95 1 118 -18 168 -29 76 -62 116 -83 99 -19 -16
-66 -121 -83 -186 -17 -63 -18 -237 -2 -323 l12 -64 -64 -64 c-35 -36 -65 -63
-67 -61 -2 2 6 41 17 87 16 61 21 103 18 154 -5 69 -37 163 -63 185 -19 16
-79 -49 -115 -124 -50 -106 -64 -177 -65 -324 0 -130 -1 -134 -25 -153 -34
-27 -81 -52 -87 -46 -2 3 7 40 20 84 36 116 41 164 22 229 -9 30 -23 58 -31
61 -23 9 -98 -71 -138 -146 -37 -72 -70 -181 -89 -293 l-12 -73 -77 -39 c-43
-22 -80 -37 -83 -34 -4 3 8 25 24 49 65 92 107 290 66 305 -26 11 -103 -36
-159 -97 -58 -63 -135 -202 -162 -294 -8 -29 -21 -58 -28 -64 -14 -12 -199
-61 -229 -61 -15 0 -8 12 29 53 67 74 114 176 114 247 0 70 -9 84 -47 76 -83
-19 -242 -192 -298 -326 -20 -46 -42 -91 -50 -100 -15 -17 -18 -31 -16 -75 1
-29 8 -35 114 -88 146 -74 263 -108 393 -114 87 -5 107 -3 147 15 51 23 54 29
33 71 -30 57 -183 134 -311 156 l-70 12 85 27 c113 37 155 37 204 3 21 -15 75
-39 120 -54 75 -26 93 -28 246 -28 152 0 169 2 218 24 28 13 52 27 52 31 0 16
-51 60 -96 83 -70 36 -141 54 -233 63 -45 3 -81 10 -81 13 0 9 121 61 142 61
9 0 55 -9 102 -20 222 -53 520 -37 581 30 23 25 8 45 -55 72 -84 36 -153 49
-272 49 -65 1 -118 4 -118 8 0 8 93 79 114 87 7 3 57 -5 112 -17 86 -18 121
-21 259 -16 166 5 222 16 292 59 31 18 32 21 18 42 -22 33 -98 71 -190 97 -67
18 -94 20 -170 15 l-90 -7 55 49 55 49 85 5 c99 6 259 56 374 116 71 37 176
127 176 151 0 23 -72 45 -148 44 -67 0 -81 -4 -175 -51 -56 -28 -103 -50 -104
-49 0 1 28 37 64 79 64 76 66 77 122 83 31 4 79 13 106 22 156 48 405 228 405
293 0 33 -18 40 -107 40 -76 0 -136 -19 -221 -71 -36 -22 -67 -38 -69 -36 -9
10 73 143 85 139 21 -7 113 27 187 71 81 47 237 198 279 269 17 29 26 58 24
75 -3 25 -8 28 -42 31 -21 2 -68 -6 -105 -17 -53 -16 -83 -34 -144 -86 -88
-75 -92 -71 -44 50 l32 80 70 34 c52 26 93 58 161 125 49 50 105 113 123 139
38 55 81 156 81 188 0 20 -4 21 -58 17 -113 -11 -206 -77 -272 -193 -39 -71
-39 -70 -45 -63 -4 4 24 167 40 235 3 13 21 31 41 41 54 28 181 159 224 232
40 67 83 184 95 258 l7 42 -34 0 c-103 -1 -247 -137 -293 -278 -10 -29 -19
-52 -21 -52 -2 0 -4 67 -4 148 l0 148 65 72 c36 40 76 95 90 122 59 117 102
294 89 376 l-6 41 -40 -10 c-61 -15 -150 -103 -178 -175 -12 -31 -29 -73 -37
-92 l-16 -35 -12 35 c-7 20 -18 68 -25 108 -12 71 -11 74 13 111 44 66 95 176
111 238 23 89 31 258 14 312 -7 25 -18 46 -24 48 -5 2 -35 -20 -66 -47 -72
-64 -116 -149 -130 -254 -6 -41 -14 -73 -18 -71 -14 9 -72 185 -67 202 3 10
22 55 42 101 31 71 39 102 50 212 14 134 8 225 -19 280 -30 63 -127 -22 -174
-153 -8 -23 -17 -81 -21 -129 l-6 -87 -47 80 -48 79 20 82 c15 61 20 118 20
213 0 143 -13 212 -56 296 -24 48 -26 50 -47 36 -77 -51 -113 -158 -102 -306
8 -106 3 -109 -48 -33 -23 34 -25 49 -30 182 -7 156 -26 249 -73 343 -29 57
-71 107 -90 107 -21 0 -53 -55 -70 -120 -13 -53 -14 -75 -4 -142 6 -44 9 -82
7 -85 -7 -7 -39 12 -61 36 -13 14 -22 50 -31 118 -18 135 -29 172 -88 293 -51
105 -141 217 -167 208 -7 -2 -22 -26 -32 -53 -27 -68 -18 -174 22 -265 16 -35
27 -67 24 -69 -2 -2 -13 4 -25 15 -12 10 -51 35 -88 54 -66 35 -66 35 -72 85
-11 84 -28 131 -71 197 -53 79 -189 216 -245 246 l-42 23 -8 -38z"/>
<path d="M1974 6014 c-60 -40 -92 -72 -157 -159 -78 -104 -115 -184 -123 -265
-8 -75 -13 -84 -68 -112 -23 -12 -56 -34 -75 -49 -19 -16 -36 -27 -38 -25 -2
1 8 33 22 70 33 87 35 201 5 269 -16 37 -24 44 -40 40 -47 -12 -136 -160 -186
-305 -24 -70 -29 -103 -39 -231 -6 -80 -16 -102 -54 -121 l-28 -15 1 107 c1
119 -15 181 -59 222 l-25 24 -29 -28 c-16 -15 -41 -54 -56 -87 -41 -92 -55
-177 -55 -348 l0 -153 -36 -49 c-20 -27 -37 -49 -39 -49 -2 0 -1 31 2 68 7 80
-10 189 -37 242 -10 20 -36 52 -56 70 -35 31 -38 31 -51 14 -7 -10 -23 -43
-35 -73 -19 -49 -22 -75 -23 -211 0 -131 4 -170 24 -250 l24 -95 -44 -85 -43
-85 -7 85 c-9 103 -37 182 -86 240 -31 36 -99 79 -108 68 -34 -41 -42 -159
-21 -308 15 -99 24 -130 67 -219 l50 -105 -32 -98 c-18 -54 -35 -95 -39 -91
-4 4 -12 36 -18 71 -15 89 -53 164 -108 217 -44 43 -101 81 -110 73 -2 -2 -9
-36 -16 -75 -9 -56 -9 -86 1 -144 28 -158 56 -231 134 -344 45 -66 48 -83 27
-207 -13 -73 -24 -84 -42 -40 -44 109 -71 153 -121 193 -53 42 -69 51 -121 63
l-29 7 6 -88 c9 -156 81 -317 193 -435 47 -49 74 -86 74 -100 1 -53 11 -215
15 -240 7 -44 -12 -32 -29 18 -29 84 -123 191 -206 234 -50 26 -130 38 -130
20 0 -24 30 -128 51 -176 58 -131 185 -275 291 -330 l46 -23 31 -128 c16 -70
28 -129 26 -131 -2 -2 -24 28 -50 67 -53 81 -101 126 -162 153 -53 24 -167 36
-178 19 -4 -7 12 -51 35 -99 36 -76 55 -101 149 -193 79 -78 123 -113 167
-133 32 -15 70 -33 84 -39 17 -9 36 -39 63 -101 21 -48 36 -90 33 -93 -3 -3
-34 18 -70 46 -77 62 -134 88 -208 97 -108 13 -125 -28 -52 -125 105 -139 326
-288 438 -295 39 -2 49 -7 60 -28 7 -14 25 -43 40 -64 14 -21 26 -42 26 -46 0
-4 -39 13 -87 38 -102 52 -179 68 -256 53 -28 -5 -56 -14 -61 -19 -35 -35 90
-147 259 -230 127 -63 180 -79 259 -80 46 0 51 -3 122 -72 41 -39 74 -75 74
-79 0 -5 -39 11 -87 34 -77 37 -98 42 -169 45 -66 3 -91 0 -128 -16 -25 -12
-46 -26 -46 -31 0 -25 90 -96 174 -136 126 -61 258 -96 378 -100 94 -3 98 -4
147 -42 27 -21 50 -41 50 -45 1 -5 -35 -8 -78 -8 -44 0 -103 -5 -132 -12 -72
-17 -188 -77 -213 -111 -24 -33 -23 -34 64 -69 49 -20 73 -22 220 -23 150 0
176 3 281 29 l116 29 62 -43 c34 -24 60 -44 59 -45 -2 -1 -50 -5 -108 -8 -198
-12 -377 -82 -344 -135 47 -76 382 -73 631 6 l63 20 70 -27 c38 -15 72 -30 75
-33 3 -3 -33 -10 -79 -17 -103 -14 -184 -41 -247 -82 -41 -26 -87 -75 -77 -84
30 -26 85 -39 176 -43 182 -7 353 33 460 110 40 27 49 30 97 25 66 -7 175 -37
175 -48 0 -5 -16 -9 -36 -9 -20 0 -70 -14 -112 -31 -134 -53 -222 -122 -222
-174 0 -20 8 -27 52 -40 65 -19 109 -19 206 1 100 20 213 66 334 134 l98 55 0
48 c0 26 -4 47 -9 47 -5 0 -35 50 -66 110 -51 97 -69 121 -147 194 -92 87
-143 119 -181 114 -20 -3 -22 -8 -21 -73 0 -85 30 -148 113 -237 48 -52 51
-58 30 -58 -40 0 -210 38 -223 50 -8 5 -21 32 -31 58 -64 171 -188 329 -288
367 -42 16 -50 16 -58 4 -30 -47 24 -218 100 -318 l25 -34 -24 8 c-14 4 -54
21 -90 39 l-64 31 -17 80 c-22 105 -71 235 -110 296 -34 53 -104 119 -126 119
-8 0 -21 -16 -29 -35 -23 -57 -17 -130 21 -240 18 -55 32 -101 30 -103 -7 -8
-85 39 -104 64 -18 23 -20 39 -20 133 1 95 -3 119 -31 202 -17 51 -41 109 -53
129 -30 48 -87 110 -101 110 -7 0 -23 -21 -36 -47 -36 -73 -39 -194 -7 -298
14 -44 23 -82 21 -84 -2 -2 -32 21 -66 51 l-62 54 0 185 c-1 176 -2 187 -28
252 -32 80 -85 160 -100 151 -22 -14 -67 -129 -73 -190 -6 -56 2 -139 22 -214
4 -18 -18 0 -78 64 l-84 89 25 71 c22 64 25 86 25 221 0 133 -3 157 -23 207
-13 31 -32 67 -42 80 l-20 23 -29 -31 c-46 -51 -75 -152 -75 -266 -1 -54 -3
-98 -6 -98 -9 1 -69 87 -87 124 -16 35 -16 37 12 103 81 194 101 287 85 388
-11 66 -39 145 -51 145 -19 0 -83 -77 -109 -132 -16 -33 -36 -103 -45 -156
-10 -54 -21 -101 -25 -105 -7 -8 -80 158 -98 225 -9 34 -8 38 25 70 72 69 163
308 163 429 0 56 -17 109 -35 109 -28 0 -99 -67 -135 -128 -21 -34 -51 -104
-67 -153 -28 -91 -28 -91 -40 -60 -13 32 -43 188 -43 226 0 12 10 27 23 34 49
26 147 160 208 283 57 115 60 127 57 180 -2 32 -7 60 -10 64 -12 11 -131 -60
-179 -107 -26 -26 -63 -78 -83 -117 -20 -40 -40 -72 -44 -72 -4 0 -7 58 -7
129 l0 130 75 37 c145 73 340 299 340 396 0 33 -10 34 -85 14 -106 -28 -200
-93 -276 -189 l-39 -49 0 44 c0 47 37 229 48 239 4 3 30 11 57 18 134 33 294
120 381 207 106 106 94 138 -49 128 -136 -9 -202 -28 -264 -76 -30 -22 -56
-38 -59 -35 -10 10 37 137 60 163 17 19 41 28 124 44 93 17 233 65 323 111 36
18 98 80 119 118 12 24 13 24 -68 40 -125 25 -239 8 -364 -55 -26 -13 -48 -22
-48 -18 0 10 59 117 79 142 16 22 27 24 171 33 196 12 337 46 430 104 79 49
77 73 -7 106 -51 21 -75 23 -203 24 -139 0 -147 -1 -197 -27 -29 -16 -57 -28
-63 -28 -16 0 15 55 57 101 34 37 38 39 97 39 104 0 278 20 351 40 141 38 256
106 242 143 -7 20 -67 46 -134 58 -74 14 -208 4 -281 -20 -31 -11 -58 -18 -60
-16 -8 8 38 63 81 98 l44 36 149 -1 c158 0 251 14 357 53 62 23 121 70 115 91
-2 7 -22 22 -44 33 -81 40 -290 28 -387 -22 -50 -25 -39 -9 36 53 113 95 121
99 166 85 76 -22 145 -31 259 -32 132 0 201 11 285 48 66 30 72 49 27 87 -48
40 -100 50 -260 48 -101 -1 -140 2 -130 9 8 5 65 35 125 66 l110 56 140 8
c160 8 227 28 295 86 38 33 77 96 95 152 l7 24 -124 -6 c-184 -10 -285 -46
-385 -137 -47 -43 -213 -140 -213 -125 0 4 16 33 36 65 41 66 63 123 64 162 0
38 -20 128 -29 128 -5 0 -26 -12 -47 -26z"/>
<path d="M3265 5369 c-593 -52 -1145 -300 -1564 -704 -196 -189 -348 -398
-472 -650 -167 -340 -238 -664 -226 -1040 18 -595 252 -1117 693 -1545 902
-875 2388 -934 3379 -133 370 299 655 720 779 1151 69 241 90 415 83 686 -11
438 -130 808 -379 1178 -124 185 -343 416 -528 555 -498 375 -1134 556 -1765
502z m398 -200 c30 -33 36 -89 16 -148 -22 -62 -122 -83 -177 -36 -68 57 -43
191 41 217 40 12 91 -1 120 -33z m-261 1 c23 -28 23 -45 -1 -69 -17 -17 -18
-20 -3 -35 9 -9 22 -34 28 -56 11 -38 11 -40 -11 -46 -45 -11 -58 -2 -70 51
-7 35 -15 51 -29 53 -16 3 -18 -2 -14 -55 l3 -58 -36 -3 c-36 -3 -37 -2 -43
40 -3 24 -9 78 -12 120 l-7 77 49 4 c83 7 127 0 146 -23z m417 -44 l14 -59 31
52 c19 31 38 51 49 51 12 0 16 -4 11 -12 -4 -7 -24 -40 -45 -73 -20 -33 -40
-79 -44 -102 -7 -44 -15 -49 -61 -37 -19 5 -20 10 -13 47 5 30 2 61 -12 112
-10 38 -19 73 -19 78 0 4 17 7 37 5 36 -3 37 -4 52 -62z m-809 20 c0 -2 -7
-21 -16 -41 l-16 -38 61 -61 c34 -34 61 -65 61 -68 0 -4 -17 -12 -37 -18 -37
-10 -39 -9 -76 31 -20 23 -40 39 -43 36 -3 -3 0 -24 7 -46 7 -23 10 -43 8 -46
-3 -2 -20 -6 -38 -7 l-34 -3 -29 108 c-16 60 -27 111 -25 113 2 3 18 9 35 14
31 8 32 8 45 -38 l14 -47 28 58 c16 31 35 57 42 57 7 0 13 -2 13 -4z m1143
-35 c4 -4 1 -26 -7 -49 -8 -23 -12 -42 -8 -42 4 0 17 -3 30 -6 13 -4 22 -2 22
5 0 6 6 27 14 46 14 33 16 34 45 24 17 -6 31 -16 31 -23 0 -6 -15 -57 -34
-111 -32 -96 -34 -100 -61 -98 -42 3 -47 15 -30 63 18 51 14 70 -14 70 -14 0
-24 -13 -36 -50 -17 -51 -26 -57 -68 -41 l-24 10 34 98 c18 54 36 104 38 112
5 13 51 8 68 -8z m232 -73 c14 -6 25 -16 24 -22 0 -6 -19 -54 -43 -106 -40
-89 -45 -95 -71 -93 -16 1 -32 6 -37 11 -9 9 81 222 94 222 4 0 19 -5 33 -12z
m-1703 -25 c39 -45 22 -96 -41 -123 l-30 -12 20 -44 19 -45 -28 -10 c-15 -5
-31 -10 -36 -10 -5 0 -31 47 -57 106 l-48 106 42 18 c67 28 70 29 108 30 22 1
42 -6 51 -16z m502 -35 c15 -25 -17 -57 -42 -42 -22 14 -28 44 -10 55 18 12
39 7 52 -13z m1395 -23 c31 -15 41 -33 41 -71 0 -17 -6 -24 -20 -24 -16 0 -19
5 -14 29 5 23 2 32 -15 40 -30 16 -50 2 -89 -62 -36 -60 -40 -102 -9 -102 23
0 58 56 40 62 -16 6 -17 33 -2 33 16 0 90 -43 87 -50 -29 -61 -63 -108 -74
-103 -8 3 -14 9 -14 14 0 5 -9 9 -20 9 -64 0 -118 69 -101 128 27 94 112 138
190 97z m-1744 -75 c0 -31 -33 -40 -52 -14 -16 22 1 46 31 42 15 -2 21 -10 21
-28z m-501 11 c4 -5 -5 -18 -19 -28 l-26 -18 61 -82 c33 -45 60 -86 60 -90 0
-8 -61 -46 -65 -41 -1 2 -26 37 -55 78 -71 100 -65 95 -94 77 -17 -11 -27 -13
-31 -6 -9 13 -7 15 78 71 78 50 83 53 91 39z m2408 -29 l28 -18 -25 -34 c-30
-41 -31 -46 -4 -61 18 -9 24 -8 30 3 5 8 17 25 27 38 l19 24 31 -20 30 -19
-69 -98 c-39 -53 -73 -97 -77 -97 -4 0 -18 9 -32 19 l-24 19 33 47 c32 44 32
47 15 60 -27 20 -27 20 -63 -30 -18 -25 -34 -45 -37 -45 -16 0 -54 35 -50 46
7 19 129 184 135 184 3 0 18 -8 33 -18z m-1032 -107 c240 -30 432 -89 650
-201 912 -469 1211 -1573 651 -2405 -516 -768 -1570 -1031 -2412 -603 -479
244 -810 667 -921 1178 -19 86 -22 133 -23 316 0 243 15 342 81 533 128 368
394 697 731 906 372 231 814 329 1243 276z m-1512 -83 c95 -64 101 -70 85 -84
-32 -27 -42 -29 -65 -14 -21 13 -26 13 -52 -8 -24 -20 -27 -26 -17 -45 12 -21
8 -41 -8 -41 -4 0 -29 50 -56 110 -46 107 -47 111 -30 130 10 11 23 20 29 20
6 0 57 -31 114 -68z m-159 -123 l85 -80 -27 -27 -27 -26 -43 42 -43 43 -20
-22 c-19 -21 -18 -21 24 -61 l43 -40 -22 -24 c-13 -14 -26 -23 -30 -22 -4 2
-46 38 -94 82 l-86 79 22 23 c28 30 31 30 72 -6 34 -29 35 -29 52 -10 16 18
16 20 -19 51 l-37 32 22 23 c13 13 27 24 33 24 6 -1 49 -37 95 -81z m3057 47
c37 -37 41 -53 20 -81 -8 -12 -19 -16 -31 -11 -17 6 -17 7 0 26 16 18 17 21 1
45 -16 24 -49 34 -60 16 -3 -4 3 -33 14 -64 29 -82 6 -127 -63 -127 -31 0 -46
7 -73 34 -38 38 -42 64 -16 95 12 15 21 18 32 12 12 -8 12 -13 -4 -30 -21 -23
-14 -56 16 -72 16 -9 24 -8 36 4 14 14 14 20 -1 59 -22 56 -21 70 4 102 31 39
81 36 125 -8z m128 -140 c58 -24 82 -80 52 -121 -8 -12 -19 -16 -31 -11 -16 6
-17 8 -1 24 22 26 20 59 -4 67 -38 12 -160 -79 -160 -119 0 -35 50 -47 88 -20
20 14 23 14 29 -1 6 -18 -8 -31 -44 -41 -53 -14 -130 64 -119 121 8 38 41 73
91 96 48 22 56 23 99 5z m-3437 -174 l92 -65 -20 -28 c-11 -16 -22 -29 -24
-29 -2 0 -49 32 -104 71 l-101 71 23 28 c12 15 27 25 32 22 6 -3 51 -35 102
-70z m3587 7 c20 -34 20 -34 -36 -65 -25 -13 -26 -17 -16 -34 16 -25 25 -25
63 0 39 26 47 25 67 -7 l16 -27 -99 -63 c-54 -35 -103 -63 -108 -63 -16 0 -46
51 -35 58 6 4 27 17 47 30 39 25 46 42 24 60 -9 8 -25 3 -61 -21 l-49 -31 -23
29 -23 29 102 67 c56 37 104 68 107 68 3 1 14 -13 24 -30z m-3724 -89 c0 -23
0 -23 -34 -10 -19 7 -29 6 -41 -6 -32 -32 -15 -54 78 -103 46 -24 63 -29 78
-21 27 15 24 27 -12 49 -25 15 -36 17 -50 8 -30 -19 -32 -1 -3 42 14 23 28 41
30 41 3 0 29 -14 59 -31 54 -30 69 -49 40 -49 -9 0 -15 -10 -15 -26 0 -16 -13
-39 -34 -60 -27 -27 -42 -34 -72 -34 -89 1 -168 84 -145 152 18 50 40 68 83
68 31 0 38 -3 38 -20z m3880 -159 c74 -74 38 -160 -81 -192 -65 -18 -101 -1
-130 59 -22 45 -22 45 -3 81 23 43 92 81 146 81 30 0 46 -7 68 -29z m-3943
-57 c129 -60 124 -87 -19 -108 l-83 -13 63 -28 c34 -15 62 -34 62 -41 0 -8 -2
-14 -4 -14 -15 0 -220 98 -223 107 -8 23 28 41 99 48 113 12 117 16 38 49 -39
17 -70 36 -70 44 0 17 18 11 137 -44z m4022 -149 c28 -14 61 -68 61 -99 0 -52
-63 -102 -141 -111 -55 -7 -86 9 -111 57 -25 49 -17 90 25 122 56 42 121 55
166 31z m-4011 -69 c1 -2 -3 -17 -9 -34 -8 -24 -17 -31 -42 -34 -24 -2 -34 -9
-42 -31 -8 -24 -6 -31 13 -45 13 -11 19 -22 14 -29 -6 -9 -37 7 -110 58 -56
38 -102 73 -102 77 0 4 3 18 7 31 l6 24 131 -7 c72 -4 132 -9 134 -10z m4117
-177 c4 -17 5 -32 3 -33 -1 -2 -48 -14 -103 -28 -108 -26 -103 -22 -94 -92 2
-16 -1 -31 -7 -33 -10 -3 -61 154 -52 161 7 6 204 54 225 55 16 1 23 -6 28
-30z m-4268 -9 c61 -27 67 -58 38 -186 l-5 -21 -121 23 c-67 13 -123 25 -125
26 -5 5 23 113 35 136 6 12 19 26 29 31 28 17 104 12 149 -9z m4263 -190 c38
-19 65 -51 54 -63 -3 -3 -21 1 -39 9 -69 29 -181 13 -235 -33 -40 -33 -51 -22
-23 25 43 75 159 105 243 62z m-4288 -51 c38 -15 54 -60 39 -108 -20 -67 -39
-73 -199 -56 l-63 7 3 31 3 32 112 -4 112 -3 7 27 c10 40 -12 52 -104 60 -106
9 -105 8 -110 24 -4 11 11 12 84 7 49 -4 101 -12 116 -17z m4358 -104 l0 -35
-50 0 c-49 0 -50 -1 -50 -30 0 -29 0 -29 49 -23 l49 5 4 -36 c4 -33 2 -36 -27
-41 -16 -2 -74 -6 -127 -8 l-98 -3 0 38 0 38 60 0 c57 0 60 1 60 25 0 24 -2
25 -65 25 l-65 0 0 34 c0 34 1 35 48 39 26 2 84 4 130 5 l82 2 0 -35z m-4330
-150 l0 -35 -60 0 c-57 0 -60 -1 -60 -25 0 -24 3 -25 60 -25 l60 0 0 -35 0
-35 -131 0 -130 0 3 33 c3 31 4 32 56 35 48 3 52 5 52 28 0 22 -4 24 -50 24
l-50 0 0 35 0 35 125 0 125 0 0 -35z m4128 -64 c21 -13 11 -55 -15 -59 -30 -4
-49 31 -27 52 18 18 24 19 42 7z m32 -110 c0 -14 -6 -17 -23 -14 -30 6 -49
-18 -45 -54 5 -43 36 -36 73 17 40 57 83 72 123 43 37 -27 44 -101 13 -132
-27 -27 -61 -28 -61 -1 0 12 5 17 14 14 21 -8 47 25 44 55 -5 45 -34 38 -67
-17 -47 -74 -102 -92 -148 -46 -22 22 -25 32 -20 72 6 51 33 82 73 82 17 0 24
-6 24 -19z m-4152 -39 c3 -27 -1 -34 -23 -42 -22 -8 -26 -15 -23 -42 2 -25 9
-34 28 -38 14 -3 26 -13 28 -22 3 -13 -13 -12 -125 8 -70 13 -129 23 -131 24
-2 0 -2 15 0 32 3 32 6 34 113 74 61 23 115 41 120 40 6 -2 11 -17 13 -34z
m4096 -164 c8 -14 7 -21 -6 -34 -22 -22 -58 -10 -58 21 0 37 43 46 64 13z
m-4094 -23 c36 -19 58 -84 41 -122 -15 -32 -59 -52 -71 -33 -11 17 -3 27 25
32 15 2 20 11 20 38 0 31 -3 35 -25 35 -21 0 -27 -8 -40 -47 -18 -56 -35 -76
-75 -84 -64 -12 -118 75 -81 131 18 27 56 34 56 11 0 -7 -9 -16 -20 -19 -24
-6 -28 -58 -6 -76 18 -15 46 11 46 41 0 32 29 84 53 96 31 15 44 14 77 -3z
m4000 -60 c45 -48 147 -70 235 -52 l40 9 -20 -22 c-73 -80 -229 -61 -282 35
-13 22 -23 43 -23 48 0 15 28 6 50 -18z m130 -170 c20 -24 -5 -45 -55 -45 -53
0 -80 24 -50 46 25 19 89 18 105 -1z m-4136 -51 c9 -3 16 -14 16 -24 0 -20
-19 -30 -60 -30 -55 0 -75 21 -48 48 13 13 66 16 92 6z m4032 -46 c64 -19 104
-37 104 -45 0 -7 -6 -13 -13 -13 -27 0 -211 67 -215 78 -6 18 9 15 124 -20z
m-56 -48 c11 -11 20 -26 20 -33 0 -10 15 -12 61 -9 49 4 61 2 57 -9 -3 -9 -28
-17 -67 -21 -43 -5 -67 -13 -77 -25 -20 -27 -18 -30 31 -49 44 -16 54 -27 36
-38 -5 -3 -56 15 -114 40 -119 52 -114 41 -60 127 20 31 29 37 58 37 22 0 43
-8 55 -20z m-3827 -58 l20 -53 -22 -23 c-48 -51 -101 -44 -131 15 l-20 39 -36
-15 c-44 -18 -67 -19 -62 -2 5 12 206 97 222 93 5 -1 18 -26 29 -54z m3746
-111 c79 -40 91 -53 91 -96 0 -26 -51 -75 -78 -75 -9 0 -56 19 -104 42 -69 32
-85 44 -77 54 9 11 27 5 91 -27 86 -43 112 -44 130 -3 15 33 -2 50 -90 91 -40
18 -70 38 -67 43 10 16 20 13 104 -29z m-3664 -56 c48 -47 23 -115 -56 -155
-113 -58 -216 35 -133 121 59 62 146 78 189 34z m-235 1 c0 -17 -27 -29 -35
-16 -4 6 -3 15 0 20 9 15 35 12 35 -4z m3760 -92 c0 -10 -7 -13 -24 -8 -47 12
-85 -58 -53 -98 43 -53 113 -64 146 -22 40 51 11 96 -34 54 -32 -30 -42 -8
-15 30 25 35 26 36 68 10 80 -49 7 -163 -94 -147 -80 13 -134 85 -108 146 21
49 114 78 114 35z m0 -251 c0 -22 -15 -15 -103 52 -84 63 -94 74 -81 88 9 8
184 -125 184 -140z m-3624 98 c-10 -16 -36 -13 -36 3 0 17 21 27 34 16 4 -5 5
-13 2 -19z m257 7 c47 -25 58 -58 31 -97 -11 -16 -20 -19 -27 -12 -7 7 -6 15
3 26 10 12 9 19 -4 40 -18 28 -53 33 -63 10 -3 -9 2 -36 12 -61 16 -41 16 -47
1 -69 -31 -47 -107 -44 -135 6 -16 29 -8 77 15 86 22 8 27 -2 14 -27 -16 -29
11 -70 46 -70 33 0 39 21 21 72 -17 51 -8 84 25 98 31 12 36 12 61 -2z m3267
-110 c30 -11 59 -24 64 -29 17 -15 -23 -22 -55 -9 -28 12 -32 11 -59 -15 l-30
-28 20 -32 c18 -29 18 -45 0 -45 -9 0 -120 184 -120 198 0 19 25 19 75 0 28
-11 75 -29 105 -40z m-3142 -77 c-78 -128 -111 -172 -120 -163 -7 7 -4 20 8
41 18 31 18 31 -8 57 -24 25 -28 25 -63 14 -23 -8 -40 -9 -46 -3 -6 6 35 29
108 60 134 57 159 56 121 -6z m2957 53 c14 -6 45 -53 45 -68 0 -3 -16 -24 -37
-46 l-36 -41 28 -29 c16 -16 24 -33 20 -40 -5 -8 -34 15 -86 66 -44 43 -79 82
-79 86 0 13 92 78 111 78 9 0 25 -3 34 -6z m-2865 -82 c0 -5 -13 -21 -30 -37
-16 -16 -30 -31 -30 -34 0 -3 16 -19 36 -35 l36 -28 34 33 c22 22 37 30 44 23
13 -13 -153 -179 -170 -169 -8 5 1 20 29 49 l41 41 -35 28 c-19 15 -38 27 -43
27 -4 0 -23 -16 -42 -35 -23 -24 -37 -32 -44 -25 -7 7 15 36 69 90 72 72 105
95 105 72z m2685 -132 c33 -38 64 -70 68 -70 5 0 24 12 43 27 24 18 38 23 45
16 8 -8 -4 -22 -37 -47 -26 -20 -50 -36 -55 -36 -14 0 -150 161 -144 171 11
16 19 10 80 -61z m-2545 24 c0 -3 -25 -36 -55 -72 -61 -74 -69 -106 -30 -124
31 -14 55 1 115 75 42 52 70 71 70 47 0 -20 -122 -150 -146 -156 -53 -13 -117
45 -97 89 28 60 143 174 143 141z m2492 -81 c88 -60 109 -83 75 -83 -7 0 -23
9 -36 19 -24 18 -25 18 -58 -1 -29 -18 -33 -25 -31 -57 6 -72 -18 -43 -45 57
-27 96 -29 132 -10 132 4 0 52 -30 105 -67z m-149 -72 c26 -43 47 -88 47 -100
0 -45 -91 -67 -107 -25 -8 23 4 29 31 15 25 -14 46 -8 46 11 0 6 -21 44 -46
85 -40 64 -48 94 -26 93 4 0 28 -36 55 -79z m-2174 47 c20 -11 42 -28 49 -36
41 -52 -42 -182 -116 -182 -18 0 -95 31 -110 46 -5 4 128 194 135 194 3 0 22
-10 42 -22z m1931 -82 c0 -7 -13 -19 -29 -26 l-29 -12 38 -86 c23 -52 34 -91
29 -97 -13 -14 -23 1 -59 88 -31 75 -33 78 -64 75 -55 -5 -43 14 29 43 82 33
85 33 85 15z m-1762 -128 c-11 -62 -21 -114 -23 -116 -2 -2 -9 -1 -15 3 -8 5
-10 21 -7 42 6 32 3 35 -30 49 -34 15 -36 14 -64 -12 -22 -21 -32 -25 -41 -16
-6 6 -10 13 -7 14 2 2 43 41 92 87 114 109 121 105 95 -51z m128 -5 c7 -45 14
-87 16 -94 2 -6 17 21 33 61 26 64 47 91 60 78 4 -4 -81 -207 -92 -218 -12
-13 -32 38 -38 99 -8 78 -19 105 -30 71 -4 -12 -18 -46 -32 -77 -18 -38 -28
-52 -36 -44 -7 7 2 40 33 111 55 127 70 129 86 13z m1478 48 c19 -21 3 -42
-17 -22 -13 13 -56 14 -75 2 -8 -5 -12 -17 -10 -27 3 -15 14 -20 58 -22 61 -4
90 -22 90 -59 0 -39 -18 -61 -56 -72 -39 -11 -72 -3 -93 23 -11 13 -11 20 -3
28 9 9 15 8 24 -4 16 -20 35 -24 71 -15 23 6 28 12 25 35 -3 25 -7 27 -63 32
-33 3 -66 9 -72 13 -22 14 -16 74 9 91 31 22 91 20 112 -3z m-156 -121 c22
-92 22 -120 3 -120 -4 0 -18 44 -30 98 -13 53 -26 103 -28 110 -3 7 3 12 13
12 16 0 23 -18 42 -100z m-1060 70 c25 -24 30 -70 7 -70 -8 0 -15 8 -15 18 0
27 -20 42 -56 42 -69 0 -116 -117 -62 -154 29 -20 62 -20 82 0 22 22 20 33 -9
40 -14 3 -25 13 -25 21 0 11 8 12 38 7 51 -9 54 -14 39 -60 -11 -32 -20 -41
-49 -48 -96 -24 -156 50 -118 149 27 70 119 100 168 55z m961 -14 c21 -16 41
-71 41 -109 0 -48 -31 -82 -84 -96 -74 -18 -71 -21 -91 94 -10 58 -16 108 -13
111 10 9 93 22 113 17 11 -3 26 -11 34 -17z m-859 -2 c0 -3 -12 -53 -27 -110
-18 -71 -31 -104 -41 -104 -17 0 -14 19 19 143 14 49 26 77 35 77 8 0 14 -3
14 -6z m1374 -9 c3 -9 -1 -18 -10 -22 -19 -7 -28 2 -21 22 8 19 23 19 31 0z
m-1248 -50 c-7 -40 -5 -45 12 -45 11 0 33 -3 50 -6 30 -6 31 -5 37 40 5 29 12
46 21 46 17 0 17 -14 4 -100 -17 -106 -21 -120 -36 -120 -12 0 -13 10 -8 49 6
45 5 49 -17 54 -13 4 -36 7 -50 7 -24 0 -27 -4 -33 -50 -5 -36 -11 -50 -22
-50 -14 0 -15 8 -10 48 20 138 28 172 43 172 12 0 14 -9 9 -45z m464 30 c0
-11 -11 -15 -36 -15 l-36 0 3 -97 c3 -86 1 -98 -14 -101 -15 -3 -17 8 -17 95
l0 98 -32 0 c-46 0 -47 23 -1 28 94 10 133 7 133 -8z m-183 -100 c18 -54 33
-103 33 -108 0 -20 -35 0 -40 23 -5 22 -12 25 -52 28 -44 3 -46 2 -53 -28 -6
-29 -29 -49 -41 -37 -4 4 68 196 83 220 3 4 12 7 21 5 10 -2 27 -39 49 -103z
m211 -107 c-4 -43 -23 -46 -25 -3 -1 25 3 35 13 35 11 0 14 -9 12 -32z"/>
<path d="M3557 5167 c-3 -7 -8 -43 -12 -79 -7 -69 3 -108 31 -108 23 0 35 47
32 124 -3 64 -5 71 -24 74 -12 2 -24 -3 -27 -11z"/>
<path d="M3290 5130 c0 -33 3 -41 16 -38 9 2 22 11 28 21 13 20 -2 50 -28 55
-13 3 -16 -5 -16 -38z"/>
<path d="M2579 4991 c-14 -5 -14 -10 3 -48 12 -28 23 -40 32 -37 21 8 27 31
14 59 -12 27 -26 35 -49 26z"/>
<path d="M3615 4476 c-159 -51 -294 -176 -385 -356 -48 -96 -68 -163 -80 -274
-24 -207 33 -439 142 -577 15 -20 28 -40 28 -43 0 -3 -31 -6 -68 -6 -105 0
-327 -19 -427 -37 -120 -21 -249 -64 -369 -124 -215 -107 -338 -214 -408 -355
-37 -75 -41 -92 -46 -176 -5 -113 11 -186 69 -307 93 -195 246 -350 474 -479
234 -132 536 -215 835 -229 296 -13 618 57 910 198 211 102 360 207 489 345
120 128 199 290 222 449 38 274 -145 499 -502 614 -197 63 -411 101 -578 101
-66 0 -111 4 -111 10 0 5 12 45 26 87 24 71 26 89 22 193 -4 111 -7 122 -71
308 -100 290 -113 381 -82 545 23 118 21 127 -17 126 -18 0 -51 -6 -73 -13z
m-33 -288 l4 -153 80 -230 79 -230 0 -115 c0 -105 -2 -120 -28 -175 -16 -33
-38 -70 -50 -83 -25 -27 -86 -66 -92 -60 -3 2 4 28 15 56 32 83 27 154 -16
247 -20 44 -38 101 -41 131 -5 47 -8 52 -21 42 -23 -20 -62 -109 -62 -144 0
-17 9 -57 21 -90 23 -65 41 -162 33 -175 -23 -37 -146 126 -193 256 -83 229
-62 495 52 667 37 55 188 208 206 208 5 0 11 -69 13 -152z m-199 -1069 c23 -6
62 -33 101 -70 l64 -60 69 52 c37 29 82 58 100 66 121 50 697 -64 923 -183
126 -66 180 -130 180 -212 0 -150 -231 -208 -564 -141 -241 49 -412 123 -590
258 -65 50 -124 88 -130 84 -6 -4 -27 -19 -46 -34 -83 -66 -365 -176 -625
-244 -192 -50 -285 -65 -404 -65 -157 1 -221 36 -221 123 0 122 149 232 452
332 113 37 321 84 433 98 66 9 222 6 258 -4z m261 -434 c166 -115 379 -208
576 -251 63 -14 125 -18 240 -18 179 1 218 11 338 88 l72 46 0 -38 c0 -124
-59 -174 -243 -206 -198 -35 -401 -30 -570 14 -172 43 -356 137 -467 238 -32
28 -61 52 -65 52 -4 0 -48 -25 -98 -57 -196 -121 -364 -191 -564 -235 -135
-30 -420 -32 -534 -4 -160 39 -209 84 -209 192 0 35 4 64 9 64 5 0 28 -16 52
-36 91 -76 183 -104 339 -104 222 0 534 82 750 198 191 102 255 132 268 127 7
-3 55 -34 106 -70z m-147 -667 c-2 -29 -3 -6 -3 52 0 58 1 81 3 53 2 -29 2
-77 0 -105z m98 -230 c-22 -11 -53 -32 -69 -45 -28 -24 -29 -24 -50 -5 -11 11
-37 29 -56 41 -22 13 -28 21 -18 21 10 0 33 -13 51 -30 19 -16 38 -30 41 -30
4 0 22 11 39 25 32 24 73 44 92 44 6 0 -8 -9 -30 -21z"/>
<path d="M2090 4655 c0 -2 8 -20 17 -40 18 -37 33 -44 52 -21 9 10 3 19 -29
40 -22 14 -40 24 -40 21z"/>
<path d="M5410 3977 c-47 -23 -66 -38 -68 -55 -4 -29 18 -29 90 -1 65 25 114
61 104 77 -13 21 -59 13 -126 -21z"/>
<path d="M5506 3755 c-75 -31 -85 -40 -64 -61 15 -15 22 -15 86 5 76 23 119
51 108 69 -11 19 -66 13 -130 -13z"/>
<path d="M1424 3684 c37 -25 40 -26 52 -9 19 26 8 35 -44 35 l-47 0 39 -26z"/>
<path d="M1280 3515 c-8 -10 -9 -19 -4 -24 14 -13 187 -42 196 -33 18 18 -6
42 -55 57 -65 19 -121 19 -137 0z"/>
<path d="M1325 2790 c-29 -14 -34 -19 -19 -19 12 -1 35 -4 52 -7 28 -6 29 -4
25 20 -6 30 -6 30 -58 6z"/>
<path d="M5341 2274 c-27 -35 -26 -48 5 -63 31 -14 39 -9 60 30 28 56 -26 83
-65 33z"/>
<path d="M1512 2255 l-33 -14 16 -31 c19 -37 36 -45 64 -30 23 12 27 40 11 71
-13 22 -15 23 -58 4z"/>
<path d="M1570 2069 c-61 -25 -91 -89 -55 -119 20 -17 91 -7 124 18 80 59 25
138 -69 101z"/>
<path d="M4992 1721 l23 -40 22 21 23 21 -41 19 c-23 10 -43 18 -45 18 -3 0 6
-18 18 -39z"/>
<path d="M1892 1657 c-43 -23 -43 -23 -22 -42 11 -10 21 -16 23 -14 2 2 15 21
30 42 32 43 28 45 -31 14z"/>
<path d="M4849 1666 l-26 -22 24 -29 24 -28 27 20 c31 23 39 48 22 68 -17 21
-41 18 -71 -9z"/>
<path d="M4603 1456 c4 -10 10 -29 13 -42 7 -27 22 -30 48 -11 16 12 15 14
-11 33 -50 36 -57 39 -50 20z"/>
<path d="M2286 1336 c-26 -35 -46 -68 -46 -73 0 -12 44 -33 69 -33 23 0 78 61
87 97 6 22 2 31 -22 50 -16 12 -32 23 -36 23 -4 0 -27 -29 -52 -64z"/>
<path d="M2482 1257 l-33 -34 27 -12 c15 -6 28 -10 29 -9 5 5 17 88 13 88 -2
0 -19 -15 -36 -33z"/>
<path d="M3810 1172 c-14 -2 -28 -7 -32 -10 -6 -6 17 -151 26 -159 2 -2 21 2
42 9 50 17 62 48 43 108 -15 45 -35 59 -79 52z"/>
<path d="M3367 1081 c-22 -53 -22 -51 13 -51 17 0 30 1 30 3 0 1 -6 22 -13 46
l-14 44 -16 -42z"/>
<path d="M3645 459 l0 -101 70 7 c88 8 119 28 123 80 7 86 -25 115 -130 115
l-63 0 0 -101z m110 1 c0 -50 -4 -75 -12 -77 -10 -4 -13 16 -13 77 0 61 3 81
13 78 8 -3 12 -28 12 -78z"/>
<path d="M3194 543 l-62 -4 9 -37 c12 -54 11 -126 -3 -140 -9 -9 5 -12 64 -12
75 0 88 6 88 41 0 15 -30 10 -36 -6 -13 -32 -34 -16 -34 25 0 41 7 49 27 29
15 -15 33 -3 33 22 0 20 -24 26 -35 9 -13 -21 -25 -9 -25 25 0 39 5 42 32 18
10 -9 21 -14 24 -10 7 7 -5 48 -14 45 -4 -1 -35 -3 -68 -5z"/>
<path d="M3312 538 c-23 -23 -12 -58 33 -107 25 -26 45 -51 45 -55 0 -14 -31
-4 -42 14 -7 11 -18 20 -25 20 -14 0 -17 -29 -5 -45 11 -16 74 -16 99 0 35 24
29 57 -23 114 -28 31 -40 51 -31 51 8 0 20 -7 27 -15 25 -30 48 -17 34 19 -7
19 -94 22 -112 4z"/>
<path d="M3450 525 c0 -31 13 -32 34 -2 15 21 16 17 14 -71 l-3 -92 45 0 45 0
-3 92 c-2 70 0 89 8 76 15 -25 39 -23 33 2 -5 18 -14 20 -89 20 -83 0 -84 0
-84 -25z"/>
<path d="M3880 405 c-16 -19 -4 -35 26 -35 28 0 44 28 23 41 -20 13 -35 11
-49 -6z"/>
<path d="M3740 205 c-34 -36 -59 -69 -56 -73 4 -3 25 -5 48 -3 39 3 40 2 36
-23 -5 -25 -4 -26 43 -26 27 0 49 5 49 10 0 6 -4 10 -10 10 -5 0 -10 7 -10 15
0 8 7 15 15 15 8 0 15 5 15 10 0 6 -7 10 -15 10 -12 0 -15 13 -15 60 0 52 -3
60 -18 60 -11 0 -47 -29 -82 -65z m30 -34 c0 -19 -35 -39 -47 -27 -7 7 26 46
39 46 4 0 8 -9 8 -19z"/>
<path d="M3175 230 c-38 -23 -45 -30 -27 -30 20 0 22 -5 22 -58 0 -32 -5 -63
-12 -70 -9 -9 1 -12 46 -12 52 0 57 2 50 18 -4 9 -9 54 -12 100 -2 45 -7 82
-11 81 -3 0 -28 -13 -56 -29z"/>
<path d="M3333 250 c-43 -17 -58 -84 -25 -113 10 -10 33 -17 51 -17 42 0 37
-21 -7 -35 -47 -14 -39 -28 11 -20 78 13 107 44 107 111 0 34 -5 47 -26 63
-28 22 -73 26 -111 11z m57 -60 c0 -27 -4 -50 -10 -50 -5 0 -10 23 -10 50 0
28 5 50 10 50 6 0 10 -22 10 -50z"/>
<path d="M3507 242 c-10 -10 -17 -22 -17 -27 0 -5 7 -17 17 -27 15 -17 15 -19
0 -36 -40 -45 3 -88 79 -79 75 8 106 54 64 92 -18 16 -19 20 -5 27 18 11 20
39 3 56 -20 20 -122 15 -141 -6z m103 -7 c14 -17 5 -35 -19 -35 -22 0 -45 25
-36 40 9 15 41 12 55 -5z m-12 -101 c19 -13 21 -19 11 -30 -7 -8 -24 -14 -38
-12 -20 2 -27 9 -29 31 -4 32 20 37 56 11z"/>
</g>
</svg>
