<svg width="40" height="40" viewBox="0 0 40 40" fill="none" xmlns="http://www.w3.org/2000/svg">
<path fill-rule="evenodd" clip-rule="evenodd" d="M17.6964 0.596454C16.895 0.682632 14.3884 1.18033 13.7834 1.37342C12.5219 1.77593 11.4826 2.24305 10.3945 2.89666C9.78682 3.26159 9.27164 3.56022 9.24955 3.56022C9.17101 3.56022 8.08201 4.35572 7.36232 4.93886C6.60368 5.55352 5.41939 6.87415 4.32609 8.32462C3.54609 9.35928 2.51311 10.8945 2.51311 11.0189C2.51311 11.0696 2.3751 11.3894 2.2063 11.7295C1.64871 12.8534 1.04829 14.9006 0.671326 16.9634C0.453001 18.1586 0.425462 21.1561 0.620436 22.5131C0.978342 25.0045 1.47143 26.82 2.19876 28.3246C3.11928 30.229 4.22599 31.8803 5.56065 33.3408C6.29478 34.1441 8.28672 35.9163 8.45551 35.9163C8.52745 35.9163 8.5864 35.9611 8.5864 36.0159C8.5864 36.0708 8.87018 36.282 9.21709 36.4853C9.564 36.6886 9.90557 36.9036 9.97625 36.963C10.1775 37.1322 10.8931 37.5916 10.9555 37.5916C10.9865 37.5916 11.3343 37.7535 11.7285 37.9513C12.3352 38.2558 13.1581 38.5858 13.5602 38.6858C13.6178 38.7001 13.7356 38.7402 13.822 38.7749C14.3792 38.9983 16.6647 39.4465 17.9751 39.5892C20.0941 39.8201 22.8442 39.5405 25.4155 38.833C26.0653 38.6543 26.5969 38.4667 26.5969 38.4163C26.5969 38.3659 26.7028 38.3238 26.8325 38.3228C27.06 38.3212 27.7413 38.0017 29.0576 37.2795C30.7401 36.3564 31.4953 35.7586 33.3218 33.9041C34.744 32.4602 35.2367 31.838 36.1372 30.3482C37.2975 28.4286 37.8787 27.0867 38.339 25.2647C39.4543 20.8494 39.0387 15.8793 37.2288 11.9895C36.118 9.60211 34.0913 6.89645 32.2267 5.31185C31.9402 5.06829 31.5812 4.76033 31.4288 4.62734C30.7703 4.05258 28.8794 2.87331 27.7084 2.30703C24.976 0.985773 22.7875 0.50682 19.6362 0.540328C18.7709 0.549543 17.8979 0.574778 17.6964 0.596454ZM18.3246 1.06253C17.7199 1.0998 17.1073 1.16357 16.9634 1.20431C16.8194 1.24504 16.3717 1.34064 15.9686 1.41687C15.1234 1.57645 14.3847 1.76001 14.0838 1.88504C13.9686 1.93289 13.7801 1.99562 13.6649 2.02452C12.7663 2.24965 11.3065 2.94609 10.2094 3.67331C9.97908 3.82598 9.68463 3.98399 9.55499 4.02441C9.42546 4.06483 9.31939 4.1374 9.31939 4.18556C9.31939 4.23384 9.10169 4.40085 8.83562 4.55677C8.2263 4.91384 8.01028 5.08588 7.55531 5.57593C7.35478 5.79185 7.15206 5.9686 7.10462 5.9686C7.00085 5.9686 6.03353 6.91918 5.90358 7.14881C5.8529 7.23824 5.62358 7.51415 5.39384 7.762C4.94672 8.2442 4.26033 9.22284 3.93991 9.83467C3.83206 10.0409 3.63373 10.3403 3.49928 10.5002C3.36483 10.6601 3.27813 10.8516 3.30651 10.9257C3.33489 10.9997 3.26347 11.1461 3.14766 11.2508C2.91091 11.4651 2.60986 12.0617 2.36609 12.7998C2.27604 13.0727 2.15887 13.379 2.10578 13.4804C2.05258 13.5819 1.95572 13.8651 1.89038 14.11C1.82515 14.3548 1.72798 14.555 1.67447 14.555C1.62106 14.555 1.60462 14.6263 1.63803 14.7134C1.67154 14.8005 1.64117 14.9413 1.5707 15.0262C1.49551 15.1169 1.47091 15.2933 1.51112 15.4537C1.54881 15.6039 1.53761 15.7813 1.48609 15.8478C1.36117 16.0089 1.15185 17.1084 1.15185 17.6029C1.15185 17.8203 1.11049 18.0237 1.05991 18.055C0.902321 18.1524 1.00201 22.1616 1.18379 23.0367C1.57468 24.9188 2.13991 26.9858 2.31342 27.1676C2.36567 27.2222 2.40839 27.332 2.40839 27.4113C2.40839 27.6001 3.08976 29.0144 3.33426 29.3331C3.43897 29.4696 3.55803 29.6519 3.59887 29.7382C3.70358 29.9597 3.86243 30.2165 4.68358 31.4922C4.87813 31.7946 5.08075 32.0419 5.13384 32.0419C5.18682 32.0419 5.30222 32.1811 5.39007 32.3511C5.5597 32.679 7.49415 34.6597 7.64473 34.6597C7.69363 34.6597 7.84295 34.7932 7.97677 34.9565C8.11049 35.1197 8.39667 35.3591 8.61258 35.4886C8.8286 35.618 9.00525 35.7935 9.00525 35.8787C9.00525 35.9637 9.04232 36.0104 9.08756 35.9824C9.1329 35.9545 9.40379 36.0678 9.68965 36.2343C9.97552 36.4008 10.3546 36.6067 10.532 36.6917C10.7092 36.7769 10.9153 36.9199 10.9898 37.0097C11.0642 37.0994 11.1925 37.1728 11.2748 37.1728C11.3572 37.1728 11.5988 37.2627 11.8117 37.3727C12.0247 37.4826 12.3168 37.6183 12.4608 37.6743C12.6047 37.7303 12.911 37.8512 13.1414 37.9432C13.8436 38.2234 14.4926 38.4262 14.6924 38.4278C14.8546 38.4291 15.5967 38.6316 16.1257 38.819C16.2121 38.8496 16.5627 38.8924 16.905 38.9142C17.2473 38.9358 17.5536 38.9901 17.5857 39.0347C17.6587 39.136 21.0712 39.1177 21.9895 39.011C22.558 38.9449 23.4825 38.763 24.1885 38.5782C24.2749 38.5556 24.7043 38.4472 25.1428 38.3375C25.5813 38.2277 26.0438 38.0823 26.1706 38.0145C26.2973 37.9466 26.4804 37.8751 26.5775 37.8554C26.9019 37.7897 27.3088 37.6058 27.3782 37.4934C27.416 37.4323 27.5288 37.3822 27.6289 37.3822C27.7291 37.3822 28.2794 37.0937 28.8519 36.7411C29.4243 36.3885 29.964 36.0728 30.0511 36.0395C30.4356 35.8925 32.0443 34.5493 32.9778 33.5958C33.8235 32.7321 35.0758 31.2178 35.0775 31.057C35.0781 31.0048 35.1881 30.8164 35.322 30.6381C35.4559 30.4599 35.6766 30.1138 35.8125 29.8691C35.9484 29.6244 36.0979 29.4241 36.1449 29.4241C36.192 29.4241 36.2304 29.3699 36.2304 29.3037C36.2304 29.1443 36.7843 28.0203 36.8848 27.9756C36.9281 27.9564 36.9634 27.8295 36.9634 27.6938C36.9634 27.558 37.0048 27.4213 37.0556 27.39C37.1063 27.3586 37.1728 27.2262 37.2034 27.0958C37.2338 26.9654 37.4067 26.3639 37.5876 25.7592C38.188 23.7505 38.4556 21.9903 38.4395 20.1571C38.4223 18.2042 37.9973 15.7595 37.3251 13.7473C36.9648 12.6688 36.0059 10.7016 35.54 10.0856C35.4014 9.90222 35.288 9.72033 35.288 9.68127C35.288 9.55488 34.3404 8.2507 33.7859 7.61373C33.489 7.27279 32.8948 6.65708 32.4655 6.24556C32.036 5.83405 31.5494 5.36787 31.3841 5.20944C31.2187 5.05111 31.0438 4.92148 30.9954 4.92148C30.9471 4.92148 30.8919 4.88619 30.8726 4.84295C30.828 4.74263 30.0141 4.1885 29.9113 4.1885C29.8687 4.1885 29.7067 4.0707 29.5515 3.92672C29.3963 3.78274 29.192 3.66494 29.0977 3.66494C29.0034 3.66494 28.8717 3.59939 28.8053 3.51928C28.7028 3.39583 27.3341 2.68734 26.6492 2.40337C26.0393 2.15038 24.4284 1.66127 24.0217 1.60546C23.7647 1.57028 23.5307 1.50295 23.5017 1.45593C23.4726 1.40891 23.3791 1.39719 23.2937 1.42996C23.2085 1.46263 23.0804 1.44117 23.0091 1.38232C22.6897 1.11813 20.1903 0.947553 18.3246 1.06253ZM17.8011 1.46211C17.2539 1.50787 16.5549 1.62033 16.2476 1.71206C15.9403 1.80378 15.6576 1.87227 15.6193 1.8642C15.4717 1.83321 14.7187 2.02577 14.46 2.16075C14.3107 2.23865 14.1149 2.30263 14.0249 2.30305C13.935 2.30337 13.6595 2.40127 13.4127 2.52043C13.166 2.6397 12.9409 2.71405 12.9126 2.68567C12.8842 2.6574 12.6368 2.7664 12.3627 2.92797C12.0886 3.08965 11.7567 3.25604 11.6249 3.29782C11.4933 3.3396 11.113 3.53352 10.7799 3.72881C10.4467 3.92399 10.133 4.08378 10.0825 4.08378C10.0322 4.08378 9.71227 4.31939 9.37175 4.60734C9.03122 4.8953 8.71373 5.1309 8.6663 5.1309C8.5084 5.1309 5.13091 8.58075 5.13091 8.74201C5.13091 8.82913 5.08379 8.90054 5.0262 8.90054C4.9686 8.90054 4.92148 8.96892 4.92148 9.05237C4.92148 9.13593 4.86096 9.2419 4.78703 9.28797C4.71311 9.33405 4.49007 9.63091 4.29154 9.94766C4.093 10.2644 3.89436 10.5393 3.85007 10.5584C3.80588 10.5777 3.76965 10.7022 3.76965 10.8352C3.76965 10.9683 3.70787 11.1007 3.63237 11.1298C3.55698 11.1588 3.43897 11.3702 3.37017 11.5997C3.30138 11.8292 3.17468 12.0755 3.0885 12.147C3.00243 12.2184 2.93195 12.3576 2.93195 12.4561C2.93195 12.5547 2.8997 12.6676 2.86023 12.707C2.71771 12.8495 2.12682 14.6075 1.92976 15.4751C1.68525 16.5522 1.47311 17.5973 1.44944 17.8421C1.39562 18.3983 1.48096 22.354 1.54787 22.4043C1.58923 22.4353 1.62724 22.6021 1.63227 22.7749C1.64871 23.336 1.76756 23.993 1.99949 24.8056C2.44065 26.3505 2.7974 27.3233 3.22148 28.1371C3.40777 28.4947 3.56023 28.8599 3.56023 28.9486C3.56023 29.0374 3.6019 29.11 3.65269 29.11C3.70358 29.11 3.7729 29.1925 3.80682 29.2932C3.87007 29.4815 4.60033 30.6628 4.80567 30.9093C4.86892 30.9851 5.22211 31.4241 5.59059 31.8848C5.95918 32.3456 6.60724 33.0358 7.03091 33.4189C7.45447 33.8018 7.92745 34.2324 8.0819 34.3758C8.50944 34.7727 9.5085 35.5185 10.2094 35.964C10.555 36.1836 10.9654 36.4512 11.1215 36.5587C11.2775 36.6661 11.4482 36.7539 11.5008 36.7539C11.6508 36.7539 12.5898 37.182 12.8796 37.3824C13.0236 37.4821 13.3063 37.5947 13.5079 37.6327C14.134 37.7507 14.1788 37.7635 14.555 37.9322C15.5817 38.3923 18.6255 38.784 20.6064 38.7108C21.3383 38.6838 22.055 38.6337 22.199 38.5997C22.9848 38.4137 23.4884 38.3326 23.5646 38.3797C23.6119 38.4089 23.68 38.3848 23.7163 38.3263C23.7524 38.2678 23.9213 38.2199 24.0914 38.2199C24.2616 38.2199 24.4826 38.1753 24.5826 38.1208C24.6826 38.0663 25.0236 37.9452 25.3403 37.8515C25.6571 37.7579 26.0105 37.6413 26.1257 37.5923C26.2409 37.5433 26.5582 37.4227 26.831 37.3243C27.1038 37.226 27.3804 37.081 27.4459 37.0021C27.5113 36.9232 27.603 36.8587 27.6495 36.8587C27.8525 36.8587 29.174 36.1801 29.591 35.8618C29.8424 35.6699 30.141 35.4834 30.2544 35.4475C30.3678 35.4114 30.4897 35.2902 30.5253 35.1779C30.5609 35.0657 30.657 34.9738 30.7389 34.9738C30.9293 34.9738 31.1013 34.8262 32.3533 33.587C33.4745 32.4776 34.555 31.282 34.555 31.151C34.555 31.1058 34.7157 30.8726 34.9121 30.6329C35.2087 30.2709 35.5694 29.6675 36.1352 28.5864C36.3626 28.152 36.8587 27.002 36.8587 26.9093C36.8587 26.8511 36.9031 26.7216 36.9572 26.6216C37.0967 26.3644 37.3322 25.5093 37.7137 23.8744C38.0359 22.4935 38.0433 22.4053 38.0307 20.07C38.0236 18.755 37.9707 17.5299 37.9131 17.3475C37.8556 17.1649 37.7082 16.5445 37.5857 15.9686C37.3795 14.9996 37.2052 14.4161 36.7566 13.1937C36.4208 12.2788 35.4984 10.5146 34.9773 9.79059C34.6871 9.38745 34.3691 8.93981 34.2705 8.79583C33.8681 8.20787 33.3586 7.63153 32.5481 6.84776C31.2565 5.59865 31.0333 5.39394 30.9466 5.37865C30.9028 5.37101 30.7186 5.22462 30.537 5.05331C30.3554 4.88211 30.1132 4.71216 29.9987 4.67583C29.8842 4.63939 29.6631 4.49132 29.5072 4.34672C29.3513 4.20211 29.1839 4.08378 29.1352 4.08378C29.0864 4.08378 28.8605 3.95101 28.6332 3.78871C28.4059 3.6264 28.0196 3.43038 27.7749 3.3531C27.5302 3.27583 27.3299 3.18012 27.3299 3.14054C27.3299 3.062 26.5188 2.69248 26.3129 2.67719C26.2432 2.67195 26.1278 2.60944 26.0564 2.53803C25.985 2.46672 25.8302 2.40808 25.7121 2.40776C25.5941 2.40734 25.3706 2.34096 25.2155 2.26001C25.0604 2.17918 24.7777 2.09038 24.5872 2.06263C24.3968 2.03499 24.1088 1.96033 23.9476 1.89677C23.7862 1.83321 23.5035 1.75656 23.3193 1.72651C23.135 1.69645 22.8533 1.64504 22.6932 1.61227C21.773 1.42399 19.2015 1.34504 17.8011 1.46211ZM18.4817 2.05782C17.3287 2.13928 16.1405 2.32577 15.445 2.53446C15.0419 2.65551 14.6414 2.7642 14.555 2.77604C14.4006 2.79729 14.2787 2.84274 13.4689 3.18127C13.2459 3.27457 12.9954 3.3508 12.9122 3.3508C12.829 3.3508 12.6065 3.4686 12.4177 3.61258C12.2289 3.75656 12.0319 3.8752 11.9797 3.87614C11.6477 3.88232 10.1943 4.75405 9.58211 5.31415C9.50347 5.38619 9.39363 5.44504 9.33824 5.44504C9.28274 5.44504 9.0084 5.65038 8.7286 5.90148C8.44881 6.15248 8.11813 6.38996 7.99363 6.42912C7.86923 6.46829 7.6973 6.60452 7.61164 6.73185C7.52599 6.85918 7.20368 7.22672 6.89551 7.5486C6.29373 8.17687 5.34033 9.44452 5.34033 9.61614C5.34033 9.67373 5.30421 9.73645 5.26002 9.75572C5.08735 9.8307 4.41604 10.755 4.24588 11.1518C4.14714 11.3822 4.02284 11.6414 3.96965 11.7278C3.91656 11.8142 3.84672 11.9555 3.81468 12.0419C3.75394 12.2053 3.63939 12.4672 3.24243 13.3508C3.00536 13.8783 2.73688 14.7264 2.67248 15.1511C2.65321 15.2774 2.60002 15.4415 2.55415 15.5157C2.50818 15.5901 2.46127 15.7223 2.44965 15.8097C2.43813 15.8971 2.37677 16.1335 2.31332 16.3351C2.24976 16.5367 2.12211 17.432 2.02965 18.3246C1.83206 20.2303 1.83981 20.0372 1.93729 20.6283C1.98002 20.8875 2.0308 21.3351 2.05007 21.6231C2.13887 22.9506 2.35782 24.2442 2.53122 24.4655C2.58284 24.5313 2.61792 24.6256 2.60913 24.6749C2.60023 24.7241 2.60452 24.7998 2.61855 24.843C2.6552 24.9561 2.67782 25.0405 2.76536 25.3927C2.80839 25.5655 2.88337 25.8011 2.93195 25.9163C2.98065 26.0314 3.10169 26.351 3.20117 26.6265C3.30054 26.9019 3.42201 27.1521 3.47101 27.1824C3.52012 27.2127 3.56023 27.3498 3.56023 27.4869C3.56023 27.6241 3.60735 27.7655 3.66494 27.8011C3.72253 27.8367 3.76965 27.9572 3.76965 28.069C3.76965 28.1809 3.81258 28.2723 3.86504 28.2723C3.9507 28.2723 4.17091 28.6892 4.47332 29.4241C4.53248 29.5681 4.79897 29.9751 5.06536 30.3285C5.33175 30.682 5.54976 31.0236 5.54976 31.0877C5.54976 31.1517 5.593 31.2042 5.64578 31.2042C5.69855 31.2042 6.04745 31.5929 6.42106 32.0681C6.79468 32.5433 7.25803 33.0713 7.4507 33.2416C8.40651 34.0864 8.99468 34.555 9.09908 34.555C9.16264 34.555 9.21468 34.5937 9.21468 34.6411C9.21468 34.733 10.0174 35.288 10.1503 35.288C10.1937 35.288 10.3055 35.3721 10.3986 35.4749C10.4915 35.5777 11.0761 35.9136 11.6975 36.2214C12.3189 36.5291 12.9116 36.8236 13.0148 36.8757C13.1179 36.9279 13.2435 36.945 13.2937 36.9139C13.3441 36.8829 13.4011 36.893 13.4204 36.9366C13.4567 37.0183 14.6558 37.4756 15.0262 37.5489C15.1414 37.5716 15.7539 37.7025 16.3875 37.8397C17.021 37.977 18.1236 38.1202 18.8376 38.158C19.5517 38.1959 20.1707 38.2483 20.2131 38.2745C20.2554 38.3007 20.425 38.2775 20.5901 38.2231C20.7551 38.1686 21.4453 38.0794 22.1239 38.0249C22.8024 37.9704 23.415 37.88 23.4852 37.8242C23.5552 37.7684 23.7539 37.6985 23.9267 37.6689C24.4351 37.5819 25.4685 37.2839 25.8639 37.1102C26.0655 37.0217 26.3246 36.9088 26.4398 36.8594C27.3664 36.462 28.8903 35.7035 28.9473 35.6111C28.986 35.5486 29.0821 35.4974 29.1611 35.4974C29.2399 35.4974 29.4845 35.3277 29.7045 35.1201C29.9246 34.9126 30.246 34.6704 30.4188 34.582C30.5916 34.4935 30.8508 34.3039 30.9948 34.1605C31.1388 34.0172 31.4215 33.7766 31.6231 33.626C31.8246 33.4753 32.0334 33.2811 32.087 33.1944C32.1406 33.1077 32.4234 32.7953 32.7153 32.5002C33.3504 31.8585 33.7173 31.4248 33.7173 31.3163C33.7173 31.2725 33.8167 31.1469 33.938 31.0372C34.0595 30.9275 34.2668 30.6257 34.3989 30.3665C34.5309 30.1073 34.7615 29.7811 34.9111 29.6415C35.0608 29.5018 35.1833 29.3337 35.1833 29.268C35.1833 29.2021 35.3246 28.8719 35.4974 28.5341C35.6702 28.1963 35.8115 27.8732 35.8115 27.8164C35.8115 27.7594 35.8725 27.6385 35.9469 27.5476C36.0214 27.4566 36.1423 27.1937 36.2156 26.9634C36.3475 26.5491 36.4453 26.2956 36.6498 25.8377C36.7077 25.7081 36.772 25.4608 36.7928 25.288C36.8135 25.1152 36.8821 24.8461 36.9451 24.69C37.3444 23.7012 37.6581 20.2475 37.4663 18.9529C37.428 18.6937 37.3668 18.199 37.3306 17.8534C37.2698 17.2726 36.916 15.5464 36.7836 15.1833C36.7521 15.0969 36.7125 14.9229 36.6955 14.7967C36.6667 14.5813 36.4382 13.9986 36.2216 13.5879C36.1688 13.4879 36.1257 13.3111 36.1257 13.1952C36.1257 13.0792 36.0786 12.9843 36.021 12.9843C35.9634 12.9843 35.9163 12.9372 35.9163 12.8797C35.9163 12.8221 35.7095 12.3627 35.4569 11.8588C34.7393 10.4276 34.6529 10.27 34.5509 10.2069C34.4983 10.1745 34.2847 9.8908 34.0761 9.57656C33.8676 9.26232 33.6544 9.00525 33.6024 9.00525C33.5504 9.00525 33.5079 8.93981 33.5079 8.85991C33.5079 8.64075 31.2839 6.28274 31.0772 6.28274C31.0113 6.28274 30.2095 5.62703 29.7294 5.18043C29.6382 5.09562 29.511 5.02619 29.4467 5.02619C29.3824 5.02619 29.2922 4.96357 29.2461 4.88714C29.2 4.81059 28.9974 4.66253 28.7958 4.55802C28.5943 4.45342 28.3115 4.30106 28.1676 4.21939C28.0236 4.13771 27.8233 4.04473 27.7225 4.01279C27.6218 3.98075 27.5393 3.91813 27.5393 3.87352C27.5393 3.82892 27.4202 3.76242 27.2747 3.72598C27.1292 3.68944 26.764 3.54944 26.4632 3.41478C25.1576 2.83059 23.3244 2.30535 22.0419 2.14797C21.5013 2.08159 19.0303 2.01907 18.4817 2.05782ZM19.6275 2.83698C19.5823 2.91007 19.6272 3.02075 19.7337 3.09865C19.8951 3.21666 19.9089 3.33907 19.8435 4.0775C19.7342 5.31258 19.5103 5.24159 18.7433 3.72892C18.422 3.0953 18.2295 2.82724 18.0959 2.82724C17.9783 2.82724 17.9058 2.90378 17.9058 3.02797C17.9058 3.13834 17.8515 3.24672 17.7852 3.26881C17.6615 3.31007 17.3951 4.17446 17.3868 4.56138C17.3843 4.68012 17.288 4.87844 17.1728 5.00211C16.805 5.39677 16.8961 5.55122 17.4811 5.52462C17.884 5.5063 18.01 5.45834 18.0492 5.30818C18.0913 5.14734 18.1363 5.13478 18.3189 5.23258C18.6538 5.41174 20.931 5.42996 21.2844 5.25625C21.9271 4.94033 22.0948 3.86693 21.5926 3.28221C21.3702 3.02326 21.1958 2.93698 20.7854 2.88284C20.4974 2.84483 20.1367 2.79049 19.9838 2.762C19.8262 2.73268 19.6719 2.76515 19.6275 2.83698ZM22.0943 3.09572C22.0943 3.19813 22.1649 3.36012 22.2514 3.45562C22.4969 3.72693 22.2622 4.73007 21.8617 5.12169C21.5591 5.4175 21.6032 5.64001 21.9389 5.51122C22.0206 5.47991 22.1135 5.49625 22.1454 5.54766C22.1771 5.59907 22.2846 5.64305 22.3843 5.64546C22.886 5.65729 23.858 5.95279 24.5331 6.29855C24.6363 6.35132 24.7662 6.3663 24.822 6.33185C24.8777 6.2974 25.2592 6.43719 25.6694 6.64242C26.0798 6.84776 26.4733 7.01572 26.5439 7.01572C26.6146 7.01572 26.8471 7.18064 27.0609 7.38221C27.2746 7.58379 27.4894 7.74871 27.5381 7.74871C27.5869 7.74871 27.6976 7.77583 27.7842 7.80902C27.8909 7.85007 27.9526 7.79373 27.9759 7.63405C28.0217 7.32232 28.1888 7.28106 28.4732 7.51132L28.7058 7.6997L28.4832 7.95635C28.3097 8.15646 28.2923 8.22536 28.4043 8.26881C28.6839 8.37729 29.6246 9.1642 29.629 9.29321C29.6362 9.50379 29.843 9.44358 29.843 9.23091C29.843 9.06494 30.1383 8.69143 30.2701 8.69101C30.2943 8.69091 30.2979 8.95164 30.278 9.27038C30.2409 9.86808 30.3628 10.1571 30.6523 10.1571C30.7485 10.1571 30.7844 10.0964 30.7465 9.9975C30.7129 9.90986 30.7147 9.62368 30.7506 9.3618C30.8089 8.93604 30.8403 8.89164 31.0461 8.94326C31.2027 8.98263 31.3481 8.92473 31.5008 8.76221C31.6899 8.56096 31.7095 8.46923 31.6263 8.17886C31.5316 7.84881 30.8758 7.12043 30.6732 7.12043C30.6197 7.12043 30.5759 7.22138 30.5759 7.34473C30.5759 7.60284 29.6874 8.69112 29.4767 8.69112C29.2633 8.69112 29.1855 8.13237 29.313 7.5152C29.4376 6.91258 29.4784 6.71729 29.5875 6.2042C29.6651 5.83844 29.5412 5.75373 29.3194 6.02096C29.2477 6.10734 29.1314 6.17803 29.0611 6.17803C28.9907 6.17803 28.7962 6.29918 28.6289 6.44724C28.4615 6.5953 28.2304 6.76012 28.1152 6.81352C28 6.86682 27.8298 6.96525 27.7368 7.03216C27.6438 7.09907 27.4919 7.12462 27.399 7.08902C27.209 7.01614 26.8256 6.25886 26.7823 5.87143C26.7505 5.5863 26.9891 5.47373 27.664 5.45551C28.0755 5.44441 28.2031 5.34536 28.112 5.10776C28.0509 4.94892 27.3599 4.65384 27.1466 4.69562C27.0747 4.70975 27.0157 4.68075 27.0157 4.63122C27.0157 4.42912 25.7377 3.85206 25.0421 3.74001C24.9487 3.72494 24.8924 3.8485 24.8753 4.10567C24.8612 4.31928 24.8004 4.55488 24.7403 4.62923C24.6802 4.70357 24.598 4.96441 24.5577 5.20892C24.4707 5.73656 24.3479 5.84106 24.0894 5.60724C23.9291 5.46211 23.9142 5.36515 23.9949 4.99488C24.1834 4.13101 24.3015 3.87436 24.5108 3.87436C24.7405 3.87436 24.7738 3.73897 24.5812 3.58818C24.4709 3.50179 23.5946 3.24609 23.4091 3.24609C23.296 3.24609 23.3526 3.49342 23.5039 3.66054C23.7468 3.92902 23.5949 4.29321 23.24 4.29321C22.833 4.29321 22.7619 4.11886 23.0243 3.76389C23.2938 3.39939 23.3094 3.14441 23.0628 3.13268C22.7426 3.1174 22.4663 3.06598 22.2775 2.98661C22.1427 2.92996 22.0943 2.95886 22.0943 3.09572ZM15.4974 3.3464C15.3534 3.39237 15.0354 3.49049 14.7906 3.56431C14.5458 3.63803 14.3456 3.733 14.3456 3.7752C14.3456 3.87949 14.6248 3.97907 14.9172 3.97907C15.1211 3.97907 15.182 4.07017 15.3197 4.58117C15.409 4.91237 15.5146 5.28933 15.5543 5.41886C15.6135 5.61206 15.5864 5.65447 15.4035 5.65447C15.0439 5.65447 14.4357 5.21384 14.4999 5.00001C14.5302 4.89928 14.5826 4.72808 14.6164 4.61981C14.7369 4.23258 13.9486 3.82179 13.5602 4.06944C13.5026 4.10609 13.2441 4.18347 12.9857 4.24127C12.6757 4.3107 12.5038 4.40871 12.4806 4.52923C12.4561 4.65604 12.5124 4.71206 12.6639 4.71206C12.8236 4.71206 12.9419 4.84588 13.104 5.20944C13.2259 5.48295 13.3667 5.7886 13.4168 5.8886C13.6847 6.42337 13.2369 6.673 12.7855 6.24054C12.6293 6.09101 12.4713 5.9686 12.4343 5.9686C12.329 5.9686 11.8326 5.48431 11.8316 5.38064C11.8308 5.28609 11.3458 5.02619 11.17 5.02619C11.1134 5.02619 11.1031 5.25572 11.1453 5.57593C11.1851 5.87834 11.2301 6.24347 11.2453 6.38745C11.2604 6.53143 11.3099 6.8264 11.3551 7.04305C11.411 7.31091 11.3959 7.48672 11.308 7.59279C11.0817 7.86546 10.922 7.76368 10.69 7.19897C10.5657 6.89656 10.4186 6.56745 10.363 6.46745C10.3073 6.36745 10.2618 6.16714 10.2618 6.02242C10.2618 5.65185 10.0606 5.69499 9.62389 6.15928C9.41698 6.37918 9.08714 6.66902 8.89091 6.80326C8.42023 7.12536 7.63813 7.9686 7.70682 8.07981C7.73667 8.12808 7.87468 8.16755 8.01353 8.16755C8.15227 8.16755 8.444 8.26996 8.6618 8.3952C10.5173 9.46232 10.571 9.46242 10.0794 8.39939C9.99185 8.21017 9.9463 8.02933 9.97813 7.9974C10.0101 7.96557 10.2156 8.06148 10.435 8.21059C10.9808 8.58148 11.1875 8.55499 11.1064 8.12483C11.0828 7.99991 11.3142 7.85708 11.5434 7.85499C11.7671 7.853 12.1466 7.54096 12.1466 7.35897C12.1466 7.28536 12.081 7.22515 12.0008 7.22515C11.6965 7.22515 11.7319 6.91426 12.0552 6.74703C12.4224 6.55719 12.4869 6.58881 12.4869 6.95897C12.4869 7.25384 12.6555 7.29844 13.0174 7.09928C13.1432 7.03007 13.3132 6.96232 13.3953 6.94881C13.4774 6.9352 13.5858 6.85049 13.6361 6.76054C13.6865 6.67049 13.8079 6.59666 13.9058 6.59645C14.0037 6.59625 14.2335 6.50483 14.4165 6.39321C14.5995 6.28169 14.9293 6.16159 15.1494 6.12651C15.8103 6.02096 16.4855 5.83918 16.5969 5.73666C16.6645 5.67447 16.5997 5.56567 16.4136 5.42933C16.2553 5.31321 16.1257 5.13059 16.1257 5.02368C16.1257 4.91666 16.0847 4.80378 16.0347 4.77289C15.9847 4.742 15.9125 4.52085 15.8742 4.28148C15.8216 3.953 15.8465 3.79991 15.9754 3.6575C16.2756 3.32577 16.0404 3.17268 15.4974 3.3464ZM20.3244 4.07488L20.309 4.92148H20.6095C21.1561 4.92148 21.4565 4.30483 21.2041 3.70075C21.1237 3.50829 20.9966 3.35017 20.9216 3.34933C20.8466 3.3486 20.6852 3.32106 20.5626 3.28818C20.3497 3.23101 20.3392 3.26577 20.3244 4.07488ZM25.5124 4.37373C25.3897 4.57227 25.0263 5.61907 25.0263 5.77415C25.0262 6.02242 25.34 6.10609 25.552 5.91426C25.6517 5.82389 25.8147 5.49174 25.9139 5.17604C26.0576 4.71918 26.0684 4.57049 25.9664 4.44755C25.8284 4.28138 25.5931 4.24316 25.5124 4.37373ZM13.6126 4.64221C13.6126 4.95624 13.7142 5.05447 13.8887 4.90954C13.989 4.8263 13.9978 4.74022 13.9209 4.59635C13.7747 4.32326 13.6126 4.34734 13.6126 4.64221ZM22.7225 4.91017C22.7225 5.14724 22.7803 5.22745 22.9891 5.27981C23.3093 5.36022 23.4123 5.30766 23.4858 5.0264C23.5469 4.79258 23.3053 4.60734 22.9389 4.60734C22.7701 4.60734 22.7225 4.67394 22.7225 4.91017ZM18.0105 4.81677C18.0105 4.87436 18.1283 4.92148 18.2723 4.92148C18.4163 4.92148 18.5341 4.87436 18.5341 4.81677C18.5341 4.75918 18.4163 4.71206 18.2723 4.71206C18.1283 4.71206 18.0105 4.75918 18.0105 4.81677ZM26.6553 4.89792C26.6232 4.93007 26.5969 5.01478 26.5969 5.08619C26.5969 5.22169 26.9776 5.17269 27.0685 5.02546C27.1268 4.93122 26.7411 4.81216 26.6553 4.89792ZM13.9456 5.78536C13.9671 5.93677 14.0633 6.03289 14.2147 6.05447C14.4975 6.09457 14.5081 6.03844 14.27 5.76033C14.0328 5.48347 13.9041 5.49331 13.9456 5.78536ZM26.0733 6.2242C26.0733 6.31394 26.1204 6.38745 26.178 6.38745C26.2356 6.38745 26.2827 6.34316 26.2827 6.28892C26.2827 6.23467 26.2356 6.16127 26.178 6.12567C26.1204 6.09007 26.0733 6.13447 26.0733 6.2242ZM11.6231 6.33509C11.6231 6.43111 11.6737 6.49268 11.7356 6.47206C11.7975 6.45143 11.8482 6.38986 11.8482 6.33509C11.8482 6.28033 11.7975 6.21876 11.7356 6.19813C11.6737 6.1775 11.6231 6.23907 11.6231 6.33509ZM19.3717 6.39227C18.0756 6.46473 16.9605 6.62703 16.4787 6.81342C16.3133 6.8774 16.0273 6.94923 15.8433 6.973C15.6591 6.99687 15.1026 7.20473 14.6067 7.43488C14.1107 7.66504 13.6663 7.85342 13.6192 7.85342C13.5721 7.85342 13.4719 7.92776 13.3964 8.01865C13.321 8.10954 13.0442 8.29478 12.7815 8.43028C12.5187 8.56577 12.1761 8.79761 12.0203 8.94567C11.8644 9.09363 11.7021 9.21467 11.6595 9.21467C11.5239 9.21467 10.9948 9.77206 10.9948 9.91488C10.9948 9.99049 10.9215 10.0524 10.8319 10.0524C10.6411 10.0524 9.10138 11.6292 9.17531 11.7488C9.20295 11.7934 9.10222 11.9601 8.95143 12.1192C8.80075 12.2782 8.60285 12.5498 8.51164 12.7225C8.42054 12.8953 8.24326 13.178 8.11771 13.3508C7.99227 13.5236 7.7573 13.9712 7.59572 14.3456C7.43405 14.7199 7.26651 15.0733 7.22326 15.1309C7.18002 15.1885 7.10965 15.399 7.06682 15.5987C7.0241 15.7983 6.9508 16.0339 6.90389 16.1222C6.79918 16.3196 6.52777 17.5636 6.43489 18.2723C6.29572 19.3328 6.2841 20.2853 6.39876 21.2032C6.54536 22.3756 6.63384 22.6178 6.91593 22.6178C7.11824 22.6178 7.13101 22.5745 7.07876 22.0681C6.91981 20.5293 6.91091 20.0572 7.01845 18.9005C7.08274 18.2094 7.20536 17.4284 7.29101 17.1648C7.37667 16.9014 7.4352 16.6422 7.42117 16.5889C7.40714 16.5357 7.46672 16.3272 7.55353 16.1257C7.64023 15.9241 7.77269 15.5362 7.84777 15.2638C7.92284 14.9913 8.04902 14.7146 8.12829 14.6489C8.20745 14.5832 8.27227 14.4802 8.27227 14.4203C8.27227 14.2346 8.6219 13.5079 8.71122 13.5079C8.75782 13.5079 8.79593 13.449 8.79604 13.377C8.79625 13.305 8.93782 13.0812 9.1107 12.8796C9.28368 12.678 9.45185 12.4301 9.48442 12.3285C9.55049 12.1229 10.404 11.1708 11.3613 10.2349C11.9917 9.61844 12.8037 9.00525 12.9895 9.00525C13.0443 9.00525 13.089 8.96389 13.089 8.91321C13.089 8.86263 13.2422 8.75897 13.4293 8.68274C13.6165 8.60661 13.9884 8.41666 14.2556 8.26064C14.9963 7.82839 17.3151 7.1241 18.1187 7.08734C18.495 7.07017 18.8484 7.0286 18.904 6.99488C19.0195 6.92515 20.192 6.95876 21.0471 7.05646C21.3639 7.09258 21.8587 7.1464 22.1466 7.17604C22.7043 7.23352 22.9624 7.29038 23.2985 7.43007C23.6635 7.5818 24.5504 7.89551 24.6722 7.91593C24.8773 7.95038 26.179 8.62431 26.3653 8.79258C26.4639 8.88159 26.6623 9.01342 26.8063 9.08556C27.5203 9.44316 29.3602 11.1705 30.0569 12.1372C30.1983 12.3335 30.4201 12.6114 30.5498 12.7546C30.6794 12.8977 30.7854 13.0751 30.7854 13.1486C30.7854 13.2222 30.9061 13.4258 31.0536 13.6012C31.4217 14.0386 32.356 16.4217 32.356 16.9231C32.356 17.0536 32.4064 17.1915 32.4679 17.2295C32.5294 17.2676 32.5543 17.365 32.5232 17.4461C32.4921 17.5271 32.5189 17.7226 32.5826 17.8805C32.7732 18.3523 32.8618 19.9778 32.7609 21.1519C32.6303 22.6711 32.4735 23.4158 32.0571 24.4964C31.9362 24.8098 31.8559 25.0845 31.8786 25.1071C31.9547 25.1834 31.4406 26.1788 30.6498 27.4861C30.3306 28.0138 29.2733 29.2434 28.5919 29.8794C28.3357 30.1186 28.0157 30.4199 27.8808 30.5492C27.7459 30.6787 27.496 30.8566 27.3256 30.9446C27.1552 31.0328 27.0157 31.1476 27.0157 31.1998C27.0157 31.2521 26.9098 31.3283 26.7801 31.3692C26.6505 31.4103 26.4032 31.5482 26.2304 31.6759C25.8053 31.9902 24.6931 32.509 24.5186 32.4747C24.441 32.4594 24.2996 32.5117 24.2044 32.5911C24.0354 32.7321 23.1438 32.9733 21.9895 33.1903C20.3788 33.4931 17.4467 33.299 16.1257 32.8019C16.0393 32.7693 15.9215 32.7355 15.8639 32.7267C15.7301 32.7061 15.4248 32.5905 15.0262 32.4094C14.8534 32.331 14.5243 32.182 14.295 32.0784C14.0656 31.9749 13.6179 31.7105 13.3002 31.4909C12.9824 31.2712 12.6047 31.0132 12.4608 30.9175C11.8578 30.5166 11.035 29.7588 10.3417 28.966C10.0961 28.6853 9.80107 28.3525 9.68588 28.2266C9.38012 27.8924 8.96243 27.2536 8.62002 26.5969C8.12012 25.638 7.43457 23.8966 7.43457 23.5858C7.43457 23.5216 7.37981 23.3365 7.313 23.1744C7.24609 23.0123 7.19719 22.8493 7.20442 22.8124C7.21164 22.7754 7.07593 22.7244 6.90274 22.699C6.5996 22.6545 6.59049 22.6647 6.65709 22.9756C6.6951 23.1532 6.75478 23.3456 6.78965 23.4032C6.82452 23.4608 6.85583 23.555 6.85918 23.6126C6.87593 23.9036 7.04923 24.6727 7.11866 24.7644C7.16222 24.822 7.25478 25.0459 7.32431 25.2618C7.39394 25.4777 7.48641 25.6545 7.52997 25.6545C7.57353 25.6545 7.61059 25.7134 7.61248 25.7854C7.61824 26.0113 8.45887 27.4708 8.79311 27.8351C8.96881 28.0266 9.08546 28.2272 9.05227 28.2809C9.01908 28.3346 9.06567 28.4067 9.15572 28.4413C9.24567 28.4758 9.31939 28.5482 9.31939 28.602C9.31939 28.7161 9.45227 28.8836 9.92148 29.3609C10.1086 29.5512 10.2618 29.753 10.2618 29.8091C10.2618 29.9402 10.7135 30.3665 10.8524 30.3665C10.9106 30.3665 11.0689 30.4843 11.2042 30.6283C11.3395 30.7723 11.5126 30.8901 11.5889 30.8901C11.6653 30.8901 11.7278 30.9279 11.7278 30.9742C11.7278 31.1155 12.9925 31.9677 13.7842 32.3597C14.1953 32.5634 14.5958 32.7794 14.6743 32.8399C14.8346 32.9637 15.7789 33.2622 16.3351 33.3649C16.5367 33.4021 16.7487 33.469 16.8063 33.5134C17.261 33.8642 21.0603 33.967 22.356 33.6637C22.7592 33.5692 23.3497 33.4314 23.6681 33.3575C23.9866 33.2835 24.4002 33.1438 24.5874 33.047C24.7746 32.9502 24.9693 32.8968 25.0203 32.9283C25.0713 32.9598 25.1288 32.95 25.1482 32.9064C25.192 32.8077 26.0859 32.3553 26.2365 32.3557C26.3293 32.356 27.2456 31.6943 28.7367 30.55C29.2322 30.1698 30.3665 28.9725 30.3665 28.8297C30.3665 28.7575 30.4608 28.6481 30.5759 28.5864C30.6911 28.5247 30.7854 28.4003 30.7854 28.3099C30.7854 28.2194 30.9267 27.9668 31.0995 27.7487C31.2723 27.5306 31.4136 27.31 31.4136 27.2584C31.4136 27.207 31.5531 27.0017 31.7235 26.8023C31.8939 26.603 32.0353 26.3601 32.0376 26.2627C32.04 26.1654 32.0878 26.0573 32.1438 26.0227C32.2306 25.9691 32.2943 25.7942 32.5256 24.9738C32.5418 24.9163 32.6269 24.6571 32.7148 24.3979C33.0891 23.2937 33.2239 22.7237 33.3091 21.8848C33.4335 20.6589 33.4721 19.0577 33.377 19.0577C33.3337 19.0576 33.2975 18.9044 33.2964 18.7173C33.2903 17.7053 32.7908 15.8399 32.1898 14.5848C31.9357 14.0542 31.7278 13.5817 31.7278 13.535C31.7278 13.4882 31.5511 13.2103 31.3351 12.9175C31.1192 12.6247 30.8717 12.2778 30.7854 12.1466C30.699 12.0154 30.5223 11.7782 30.3927 11.6196C30.2631 11.4609 30.1571 11.297 30.1571 11.2553C30.1571 11.135 28.7362 9.73824 28.6138 9.73824C28.5531 9.73824 28.3677 9.58504 28.2017 9.39792C28.0357 9.2108 27.7716 8.9907 27.6149 8.90902C27.4581 8.82735 27.3299 8.72127 27.3299 8.67342C27.3299 8.62557 27.271 8.5863 27.199 8.5863C27.127 8.58619 26.9312 8.46839 26.7638 8.32452C26.5965 8.18054 26.4142 8.06284 26.3587 8.06284C26.3032 8.06284 25.9925 7.90567 25.6682 7.71363C25.3439 7.52159 24.7723 7.27771 24.3979 7.17174C24.0236 7.06567 23.6702 6.94557 23.6126 6.90473C23.4421 6.78378 22.8041 6.67028 22.3822 6.68567C22.1663 6.69363 21.9895 6.65771 21.9895 6.60598C21.9895 6.55415 21.7421 6.48043 21.4398 6.44211C21.1375 6.40368 20.8194 6.36169 20.733 6.34871C20.6466 6.33572 20.0341 6.3553 19.3717 6.39227ZM9.4818 6.72776C9.5751 7.03384 9.83782 7.32986 10.0162 7.32986C10.1889 7.32986 10.1905 7.27991 10.0313 6.83991C9.93719 6.57949 9.84337 6.49216 9.65782 6.49216C9.44934 6.49216 9.42138 6.52954 9.4818 6.72776ZM8.68452 7.49488C8.53415 7.67604 8.5596 7.70504 9.14588 8.02201C9.50033 8.21373 9.5263 8.19844 9.4574 7.8396C9.42693 7.68127 9.29499 7.51405 9.14756 7.44693C8.8262 7.30043 8.84766 7.29823 8.68452 7.49488ZM30.7515 8.04232C30.4876 8.33405 30.5322 8.50064 30.8639 8.46242C31.0894 8.43656 31.1519 8.37447 31.1519 8.17625C31.1519 7.85279 30.9762 7.79405 30.7515 8.04232ZM7.12044 8.48672C7.12044 8.54703 7.00264 8.70557 6.85866 8.83897C6.57185 9.10483 6.53876 9.28661 6.70902 9.66043C6.91185 10.1055 7.1752 10.1905 7.75447 9.99813C8.32934 9.80714 8.69112 9.86661 8.69112 10.152C8.69112 10.3743 8.2152 10.5041 7.93991 10.3568C7.54976 10.148 7.06955 10.3721 7.32955 10.6417C7.42075 10.7364 7.47782 11.1875 7.45038 11.5969C7.43897 11.7672 7.36934 11.8321 7.19897 11.8309C6.6619 11.8272 6.56714 11.3916 7.07562 11.264C7.41499 11.1789 7.39625 11.0232 7.02075 10.8077C6.8507 10.7101 6.68714 10.5355 6.65719 10.4198C6.62735 10.3041 6.47635 10.1515 6.3218 10.0807C6.0819 9.9708 6.02075 9.97845 5.90337 10.1331C5.82777 10.2327 5.76431 10.3704 5.76253 10.4392C5.76065 10.508 5.5974 10.7409 5.3996 10.9568C4.95688 11.44 4.86033 11.7278 5.14075 11.7278C5.25049 11.7278 5.34033 11.6806 5.34033 11.6231C5.34033 11.5655 5.39928 11.5183 5.47122 11.5184C5.6575 11.5185 6.8063 12.4389 6.8063 12.588C6.8063 12.6827 6.77667 12.6824 6.68065 12.5864C6.61154 12.5173 6.44525 12.4607 6.31101 12.4607H6.06703L6.28997 12.7623C6.45719 12.9885 6.48777 13.1129 6.41206 13.2597C6.35646 13.3675 6.33216 13.5145 6.35792 13.5864C6.46818 13.8937 5.67007 13.6675 5.06326 13.2193C4.83049 13.0475 4.74955 12.9158 4.78756 12.7708C4.84871 12.5367 4.5707 12.4787 4.43112 12.6964C4.29792 12.9042 4.08714 13.5428 4.08536 13.7435C4.08452 13.8443 4.03667 13.9267 3.97907 13.9267C3.92148 13.9267 3.8729 14.0091 3.87101 14.11C3.86923 14.2108 3.79855 14.3847 3.71394 14.4965C3.53656 14.731 3.50955 15.0786 3.6686 15.0786C3.72829 15.0786 3.89342 15.0023 4.03562 14.9091C4.24735 14.7704 4.32347 14.7639 4.4551 14.8731C4.54358 14.9465 4.84955 15.1149 5.1352 15.2471C5.54588 15.4375 5.65447 15.5401 5.65447 15.7381C5.65447 16.1135 5.31017 16.3783 4.95185 16.2786C4.79122 16.2338 4.61258 16.1902 4.55499 16.1816C4.4974 16.1731 4.36777 16.1334 4.26703 16.0935C4.1663 16.0536 4.00305 15.995 3.90431 15.9633C3.75091 15.9139 3.76117 15.8873 3.97457 15.78C4.3286 15.6021 4.35457 15.4108 4.04096 15.2916C3.55625 15.1073 3.37384 15.2705 3.28389 15.9686C3.26159 16.1414 3.17698 16.4712 3.09583 16.7016C2.9285 17.1765 2.95562 17.2273 3.42934 17.3271C3.71803 17.388 3.76965 17.369 3.76965 17.202C3.76965 17.0938 3.71394 16.9495 3.64578 16.8814C3.57761 16.8132 3.54944 16.7299 3.58316 16.696C3.69876 16.5805 4.97353 16.8871 5.18996 17.0824C5.30892 17.1898 5.45593 17.2775 5.51667 17.2775C5.62986 17.2775 5.75593 16.717 5.75803 16.2042C5.75866 16.0459 5.80536 15.9162 5.8619 15.9162C5.91834 15.9162 5.993 15.7866 6.02756 15.6283C6.18483 14.9097 6.96284 13.0835 7.14661 13.0018C7.18976 12.9825 7.22515 12.9108 7.22515 12.8424C7.22515 12.7739 7.35876 12.554 7.52211 12.3537C7.97175 11.8023 8.10368 11.3345 7.89803 11.0206C7.68703 10.6987 7.75991 10.6132 8.00986 10.8894C8.26651 11.173 8.42222 11.1538 8.64504 10.8115C8.74808 10.6531 8.8975 10.4752 8.97709 10.416C9.49395 10.0314 8.83855 9.01509 8.22546 9.25038C8.12463 9.28913 8.09279 9.25844 8.13091 9.15928C8.20703 8.96085 7.6151 8.37698 7.33792 8.37698C7.21834 8.37698 7.12044 8.4263 7.12044 8.48672ZM32.1563 8.74347C32.1919 9.12242 31.9747 10.0438 31.7983 10.2618C31.5881 10.5217 31.2257 10.6926 31.1793 10.5536C31.1574 10.4879 31.0831 10.469 31.0139 10.5117C30.9203 10.5695 30.9305 10.6312 31.0535 10.7544C31.1443 10.8451 31.2915 11.0306 31.3805 11.1665C31.5747 11.4628 31.7278 11.4862 31.7278 11.2195C31.7278 11.1127 31.8339 10.9108 31.9637 10.7708C32.1731 10.5448 32.2844 10.5171 32.9584 10.5234C33.3758 10.5271 33.7173 10.504 33.7173 10.4717C33.7173 10.4395 33.6439 10.3084 33.5543 10.1804C33.3713 9.91907 33.1389 9.87614 33.0574 10.0885C32.984 10.2797 32.356 10.2935 32.356 10.1039C32.356 10.0247 32.4064 9.92892 32.4679 9.89091C32.5294 9.85289 32.5545 9.75583 32.5236 9.6753C32.4871 9.58033 32.5399 9.52881 32.6734 9.52881C32.9558 9.52881 32.9334 9.41593 32.5564 8.94117C32.1156 8.38598 32.1228 8.38954 32.1563 8.74347ZM7.12044 9.24431C7.12044 9.49677 7.37091 9.54316 7.78955 9.36839C7.98096 9.2885 7.98117 9.28106 7.79572 9.14546C7.47834 8.91331 7.12044 8.96577 7.12044 9.24431ZM6.02274 10.7834C5.86913 10.9532 5.85897 11.0197 5.96693 11.1499C6.12065 11.3351 6.44829 11.3599 6.5507 11.1943C6.6241 11.0755 6.4064 10.5759 6.28127 10.5759C6.24232 10.5759 6.12599 10.6693 6.02274 10.7834ZM19.1623 11.4573C19.1623 11.8685 19.1322 11.9372 18.9514 11.9372C18.7765 11.9372 18.7495 11.8857 18.7936 11.6353C18.8274 11.444 18.7912 11.2872 18.695 11.2074C18.4431 10.9983 18.3332 11.1683 18.4579 11.5746C18.5511 11.8781 18.5418 11.9743 18.4064 12.1096C18.2563 12.2599 18.2349 12.2542 18.1687 12.0457C18.1288 11.9197 18.1201 11.7927 18.1494 11.7634C18.2329 11.6799 17.8761 11.3089 17.7124 11.3089C17.603 11.3089 17.5825 11.3945 17.6325 11.644C17.6693 11.8283 17.7494 12.01 17.8104 12.0477C17.8825 12.0923 17.8611 12.1764 17.7489 12.2885C17.5178 12.5196 17.4934 12.5106 17.3665 12.1466C17.3063 11.9738 17.1909 11.8325 17.1102 11.8325C16.942 11.8325 16.9111 12.1019 17.0681 12.199C17.1257 12.2346 17.1728 12.3397 17.1728 12.4325C17.1728 12.5254 17.2508 12.6875 17.3461 12.7928C17.4414 12.8981 17.4678 12.9843 17.4046 12.9843C17.3415 12.9843 17.2588 12.9339 17.2208 12.8725C17.1827 12.8109 17.0842 12.7865 17.0018 12.8181C16.9078 12.8542 16.8152 12.7789 16.7532 12.6158C16.6989 12.4729 16.5825 12.356 16.4948 12.356C16.2804 12.356 16.2911 12.4072 16.599 12.859C16.7983 13.1514 16.8272 13.2537 16.7169 13.2774C16.5044 13.3229 15.9461 12.7236 15.6774 12.1615C15.4755 11.7391 15.4003 11.6732 15.1038 11.6583C14.8516 11.6457 14.6465 11.7376 14.3184 12.0103C14.0742 12.2132 13.8554 12.433 13.8323 12.4986C13.8091 12.5641 13.524 12.9477 13.1988 13.3508C12.8734 13.7539 12.5717 14.1768 12.5284 14.2903C12.3395 14.7847 11.5064 15.7687 10.9442 16.1615C10.7924 16.2676 10.625 16.4678 10.5723 16.6065C10.5196 16.7451 10.4281 16.8587 10.3691 16.8587C10.3101 16.8587 10.2618 16.8982 10.2618 16.9467C10.2618 16.9952 9.99688 17.3132 9.67311 17.6535C9.00986 18.3507 8.4596 19.1466 8.54525 19.2851C8.5773 19.337 12.004 19.3762 16.3692 19.3749C20.641 19.3734 25.6609 19.3719 27.5244 19.3712C29.3879 19.3707 30.9547 19.3442 31.0061 19.3125C31.0574 19.2806 31.0995 19.1433 31.0995 19.0072C31.0995 18.8209 31.0154 18.732 30.7592 18.6472C30.2823 18.4895 29.7082 17.9311 28.3644 16.3176C28.0127 15.8953 27.6832 15.534 27.6321 15.5149C27.5811 15.4956 27.5393 15.428 27.5393 15.3645C27.5393 15.3011 27.3508 15.0256 27.1204 14.7524C26.8901 14.4792 26.7016 14.2051 26.7016 14.1436C26.7016 14.0819 26.6662 14.0302 26.6231 14.0286C26.5799 14.027 26.429 13.8386 26.2879 13.6098C26.1467 13.381 25.9935 13.1937 25.9476 13.1937C25.9016 13.1937 25.8639 13.0995 25.8639 12.9843C25.8639 12.8691 25.8285 12.7745 25.7854 12.774C25.7422 12.7736 25.4715 12.3731 25.184 11.884C24.739 11.1272 24.6202 10.9948 24.3866 10.9948C24.0334 10.9948 23.6445 11.3044 23.2261 11.919C23.0427 12.1882 22.8179 12.4791 22.7264 12.5655C22.6349 12.6518 22.4777 12.8521 22.3771 13.0105C22.189 13.3065 21.9498 13.3836 21.8284 13.1871C21.7906 13.1259 21.8349 12.9926 21.9269 12.8909C22.1253 12.6718 22.1504 12.3199 21.9634 12.382C21.8914 12.4059 21.6933 12.669 21.5232 12.9666C21.1947 13.5414 20.9275 13.7288 21.2069 13.1885C21.2977 13.0129 21.3442 12.7812 21.3101 12.6737C21.2759 12.5663 21.2971 12.4481 21.357 12.411C21.417 12.3739 21.4644 12.1933 21.4625 12.0095L21.459 11.6754L21.2531 11.9226C21.1398 12.0585 21.0471 12.2338 21.0471 12.312C21.0471 12.3986 20.9824 12.4293 20.8819 12.3908C20.7573 12.3429 20.725 12.2107 20.751 11.8535C20.7736 11.5417 20.7406 11.3647 20.6545 11.3356C20.5783 11.31 20.5236 11.3801 20.5236 11.5035C20.5236 11.62 20.4757 11.745 20.4172 11.7812C20.3587 11.8174 20.3352 11.8865 20.3652 11.935C20.3951 11.9834 20.3901 12.0998 20.3541 12.1937C20.2535 12.4555 19.9881 11.8782 20.0238 11.4755C20.0395 11.2975 20.0053 11.141 19.9477 11.1278C19.8901 11.1145 19.8369 11.2794 19.8295 11.4943C19.8102 12.0585 19.8097 12.0595 19.5895 11.9417C19.4412 11.8623 19.393 11.7331 19.4059 11.4491C19.4161 11.2215 19.37 11.0465 19.2928 11.0209C19.2013 10.9903 19.1623 11.1207 19.1623 11.4573ZM34.1355 11.4398C34.1348 11.7951 33.9817 11.9312 33.089 12.37C32.7352 12.5439 32.7187 12.5431 32.6119 12.344C32.5022 12.1399 32.4992 12.14 32.3066 12.3528C32.1167 12.5626 32.1174 12.5732 32.3389 12.8089C32.4635 12.9416 32.5655 13.0895 32.5655 13.1376C32.5655 13.1858 32.7515 13.5479 32.9789 13.9422C33.2063 14.3366 33.4526 14.9186 33.5263 15.2354C33.6638 15.8267 33.896 16.0037 34.0022 15.5979C34.0537 15.4008 34.6048 15.0784 34.9738 15.0295C35.0602 15.0181 35.2331 14.9754 35.358 14.9346C35.5324 14.8776 35.601 14.9101 35.6531 15.0742C35.6904 15.1917 35.7664 15.288 35.8219 15.288C35.9811 15.288 36.0558 14.9849 35.9331 14.8371C35.872 14.7634 35.804 14.5291 35.7822 14.3167C35.7604 14.1042 35.6639 13.8434 35.5677 13.7371C35.4714 13.6307 35.3927 13.4713 35.3927 13.3828C35.3927 13.2944 35.3049 13.1096 35.1977 12.9723C35.0904 12.8349 34.9674 12.6047 34.9242 12.4607C34.8811 12.3168 34.7129 11.9797 34.5505 11.7117C34.3882 11.4439 34.2835 11.1965 34.3179 11.162C34.3523 11.1277 34.3255 11.0995 34.2583 11.0995C34.1904 11.0995 34.1358 11.2507 34.1355 11.4398ZM24.1361 11.6272C24.0786 11.6815 23.8782 11.8482 23.6911 11.9978C23.504 12.1475 23.3508 12.3289 23.3508 12.401C23.3508 12.5322 22.8446 13.1546 22.2453 13.7602C22.0691 13.9381 21.8938 14.1662 21.8558 14.267C21.8178 14.3679 21.7224 14.4503 21.6439 14.4503C21.5654 14.4503 21.3403 14.6505 21.1438 14.8953C20.9473 15.1401 20.6332 15.4814 20.4457 15.6537C20.2581 15.8261 20.1047 16.0109 20.1047 16.0643C20.1047 16.1178 20.0288 16.2455 19.936 16.348C19.7801 16.5202 19.7847 16.5627 19.9969 16.906C20.1232 17.1103 20.2624 17.2775 20.3064 17.2775C20.3504 17.2775 20.5232 17.3975 20.6905 17.5441C20.8579 17.6907 21.1244 17.8379 21.2827 17.8713C21.687 17.9565 21.6847 18.3246 21.2799 18.3246C20.9789 18.3246 20.3094 17.8317 19.8324 17.2589C19.769 17.1827 19.5376 16.9791 19.3182 16.8063C19.0988 16.6335 18.7501 16.3261 18.5434 16.1231C18.3367 15.92 18.0733 15.6844 17.958 15.5995C17.8428 15.5146 17.6236 15.2801 17.4708 15.0786C17.318 14.877 16.8822 14.3898 16.5022 13.9958C16.1223 13.6018 15.8115 13.2466 15.8115 13.2065C15.8115 13.1663 15.6721 12.9703 15.5017 12.7709C15.3312 12.5715 15.1899 12.3495 15.1876 12.2775C15.1801 12.0513 14.8905 12.1343 14.5048 12.4729C14.1464 12.7876 13.118 14.2022 12.7562 14.8781C12.6596 15.0588 12.2493 15.5428 11.8445 15.954C10.8678 16.9462 10.6018 17.2591 10.3637 17.6964C10.2539 17.8979 10.0202 18.2013 9.84431 18.3705C9.6684 18.5396 9.54128 18.7281 9.5618 18.7893C9.59855 18.8987 10.4259 18.9065 24.7088 18.9331C27.3275 18.938 29.4927 18.9192 29.5205 18.8914C29.5938 18.818 29.0787 18.362 28.8352 18.2847C28.7213 18.2486 28.4442 18.0308 28.2196 17.8008C27.8842 17.4573 27.836 17.3591 27.9502 17.2514C28.0612 17.1467 28.0987 17.1466 28.137 17.2513C28.1634 17.3234 28.246 17.3822 28.3205 17.3822C28.3951 17.3822 28.5147 17.4529 28.5864 17.5393C28.7365 17.7201 28.9005 17.746 28.9005 17.5889C28.9005 17.4951 28.6955 17.2626 27.7451 16.2791C27.632 16.1618 27.5393 16.0301 27.5393 15.9861C27.5393 15.9422 27.4215 15.7971 27.2775 15.6637C27.1335 15.5302 27.0157 15.389 27.0157 15.35C27.0157 15.2765 26.5146 14.5849 25.6428 13.4555C25.4649 13.2251 25.2279 12.8577 25.1157 12.6389C25.0037 12.4201 24.8487 12.2169 24.7714 12.1871C24.6942 12.1575 24.6032 11.9949 24.5693 11.8258C24.5081 11.5195 24.3351 11.4402 24.1361 11.6272ZM19.7024 12.356C19.7024 12.5 19.7262 12.559 19.7552 12.4869C19.7843 12.415 19.7843 12.2972 19.7552 12.2251C19.7262 12.1532 19.7024 12.2121 19.7024 12.356ZM34.1012 12.5462C33.9473 12.7161 33.9465 12.7566 34.0919 12.964C34.2798 13.2324 34.4766 13.2573 34.6603 13.0358C34.7685 12.9057 34.7459 12.8326 34.5314 12.618C34.2826 12.3692 34.2642 12.3662 34.1012 12.5462ZM33.1777 13.1347C33.0122 13.498 33.1325 13.75 33.4288 13.6604C33.8121 13.5446 33.866 13.4335 33.6781 13.1467C33.4589 12.8123 33.3261 12.809 33.1777 13.1347ZM18.8264 13.1247C18.6128 13.1925 18.3795 13.3064 18.3081 13.3778C18.2366 13.4493 18.105 13.5093 18.0157 13.5112C17.8217 13.5151 17.2775 13.9743 17.2775 14.1339C17.2775 14.2465 17.793 14.8656 18.1449 15.1757C18.2478 15.2663 18.4834 15.4822 18.6685 15.6556C19.3738 16.3159 19.3176 16.3142 19.8679 15.6928C20.1415 15.3838 20.5735 14.9306 20.8278 14.6858C21.2317 14.2968 21.2765 14.2108 21.1822 14.004C21.123 13.8737 20.9387 13.6993 20.7728 13.6161C20.6069 13.533 20.377 13.3855 20.2618 13.2881C19.981 13.0508 19.3032 12.9736 18.8264 13.1247ZM34.2147 13.9289C33.8374 14.1658 33.7173 14.3044 33.7173 14.5028C33.7173 14.8183 33.7194 14.8184 34.5679 14.5521C35.1295 14.3758 35.2638 14.2882 35.3592 14.0353C35.4523 13.7887 35.4448 13.7195 35.3201 13.6716C35.0087 13.5522 34.7003 13.6239 34.2147 13.9289ZM4.31667 14.0132C4.30881 14.289 4.35782 14.3251 5.03384 14.5428C5.80023 14.7897 5.9686 14.7724 5.9686 14.4468C5.9686 14.2297 5.48735 13.9267 5.14232 13.9267C5.02766 13.9267 4.90473 13.8796 4.86913 13.822C4.83353 13.7644 4.69656 13.7173 4.56473 13.7173C4.37352 13.7173 4.32337 13.7771 4.31667 14.0132ZM34.3717 15.594C34.1769 15.7169 34.0314 15.8959 34.0314 16.0132C34.0314 16.1259 33.9875 16.2453 33.9336 16.2784C33.8015 16.3601 33.9217 17.0613 34.1203 17.3681C34.2173 17.5178 34.2835 17.8697 34.2877 18.2581C34.2914 18.6114 34.3357 18.9647 34.3859 19.0432C34.438 19.1247 34.4373 19.2144 34.384 19.2526C34.2505 19.3484 34.2869 20.0089 34.4415 20.2978L34.5729 20.5433L34.8327 20.2992C35.038 20.1063 35.227 20.0501 35.7336 20.0311C36.0861 20.0179 36.4262 20.05 36.4892 20.1023C36.7234 20.2966 36.8903 20.0437 36.8083 19.6189C36.7029 19.0723 36.6339 18.3476 36.6469 17.9192C36.6554 17.6344 36.6247 17.5787 36.4878 17.6312C36.3944 17.667 36.2982 17.6964 36.2742 17.6964C36.2501 17.6964 36.2304 17.7682 36.2304 17.856C36.2304 17.9438 36.1231 18.0565 35.9917 18.1064C35.6717 18.2281 34.5309 18.0972 34.4764 17.9326C34.4165 17.7519 34.9622 17.5637 35.3325 17.6374C35.5507 17.681 35.7012 17.641 35.856 17.4984C35.9755 17.3884 36.1676 17.2802 36.2827 17.258C36.6589 17.1857 36.4678 16.1647 35.9863 15.6754C35.6869 15.371 34.797 15.3262 34.3717 15.594ZM35.013 15.9884C34.4181 16.1051 34.117 16.9759 34.6456 17.0508C34.9872 17.0991 35.1309 16.9194 35.0938 16.4898C35.0767 16.2895 35.111 16.1257 35.1703 16.1257C35.2715 16.1257 35.4955 16.7542 35.4968 17.0419C35.4971 17.1139 35.5272 17.1728 35.5637 17.1728C35.6761 17.1728 36.021 16.7298 36.021 16.585C36.021 16.4207 35.4911 15.9103 35.3414 15.9305C35.2833 15.9383 35.1354 15.9644 35.013 15.9884ZM29.0214 17.8469C29.0414 17.943 29.1047 18.0191 29.1623 18.016C29.3177 18.0078 29.2892 17.7735 29.1261 17.7192C29.038 17.6899 28.9989 17.7377 29.0214 17.8469ZM4.29321 18.3215C4.29321 18.3774 4.43457 18.5276 4.60735 18.6553C4.8464 18.8321 4.92148 18.9705 4.92148 19.2344C4.92148 19.5691 4.90693 19.5812 4.50264 19.5812C4.27227 19.5812 4.08379 19.5435 4.08379 19.4975C4.08379 19.4514 3.91593 19.4334 3.7107 19.4574C3.39698 19.4939 3.32818 19.4647 3.27824 19.2737C3.23855 19.1222 3.15122 19.0572 3.01583 19.0783C2.84546 19.1048 2.8063 19.215 2.77174 19.7644C2.73185 20.3979 2.78106 20.5241 2.98955 20.3227C3.07206 20.2431 4.30452 20.1582 4.79792 20.1982C4.87803 20.2047 4.92201 20.3051 4.90264 20.4371C4.86714 20.6782 4.54127 20.9133 3.76965 21.2543C3.0374 21.5778 2.79489 21.7182 2.75394 21.8421C2.73258 21.9065 3.18567 22.1086 3.79258 22.3053C4.38473 22.4971 4.92808 22.6988 5.00002 22.7534C5.19164 22.8991 5.1597 23.0367 4.93426 23.0367C4.8262 23.0367 4.68305 23.1025 4.61614 23.1832C4.54934 23.2637 4.3197 23.3522 4.10599 23.3799C3.08117 23.5126 3.01813 23.5689 3.22965 24.1635C3.46525 24.8255 3.50892 24.8831 3.86923 25.0087C4.28599 25.1541 4.67698 24.8543 4.77426 24.3149C4.90923 23.567 5.26661 23.2823 5.40054 23.816C5.47562 24.115 5.39489 24.2798 5.12442 24.3798C4.86599 24.4754 5.02578 24.7393 5.35688 24.7637C5.49174 24.7735 5.61562 24.8511 5.63206 24.936C5.65698 25.0646 4.80881 25.9414 4.14274 26.4753C3.78033 26.766 4.02442 26.858 5.23782 26.8885C6.72808 26.9258 7.09604 27.1368 6.30892 27.5025C6.093 27.603 5.88148 27.7413 5.83908 27.8099C5.72201 27.9992 5.25771 28.082 5.0219 27.9558C4.72201 27.7953 4.59237 27.9155 4.73279 28.2237C4.7975 28.3656 4.88483 28.4817 4.92693 28.4817C4.96902 28.4817 5.03227 28.5964 5.06745 28.7365C5.10264 28.8767 5.22065 29.0196 5.32986 29.0543C5.45709 29.0947 5.51059 29.1846 5.47907 29.3052C5.45017 29.4157 5.57949 29.6889 5.79332 29.969C5.99311 30.2308 6.21017 30.5452 6.27572 30.6676C6.43206 30.9597 6.96431 30.9724 7.11677 30.6876C7.28002 30.3824 7.25447 30.3478 6.89363 30.3848C6.71112 30.4036 6.54431 30.3657 6.52253 30.3004C6.45792 30.1069 7.54546 29.3177 7.87269 29.3205C8.08693 29.3224 8.36651 30.0443 8.39949 30.6806L8.42934 31.2566L7.61782 31.244C7.17143 31.2371 6.8063 31.2469 6.8063 31.2659C6.8063 31.2848 7.11258 31.6158 7.48693 32.0014C7.86127 32.3869 8.16756 32.7631 8.16756 32.8372C8.16756 32.9113 8.21677 33.0023 8.27688 33.0395C8.45531 33.1498 8.66546 32.8972 8.61499 32.6332C8.57803 32.44 8.68578 32.2854 9.12525 31.901C9.72002 31.3806 9.84295 31.3236 9.84295 31.568C9.84295 31.6529 9.70159 31.7955 9.52881 31.8848C9.11112 32.1009 9.13164 32.1855 9.58117 32.1012C9.81017 32.0582 9.94766 32.0735 9.94766 32.1419C9.94766 32.2021 9.90368 32.2513 9.84997 32.2513C9.79625 32.2513 9.72243 32.3456 9.68588 32.4608C9.64934 32.5759 9.54976 32.6702 9.46463 32.6702C9.22588 32.6702 8.78881 33.1582 8.86044 33.3449C8.89478 33.4346 8.97688 33.5079 9.04264 33.5079C9.1085 33.5079 9.3707 33.6982 9.62525 33.9309C10.1486 34.4093 10.4366 34.4405 10.3865 34.0135C10.3659 33.8376 10.4245 33.6867 10.5483 33.5967C10.6551 33.5191 10.8739 33.2809 11.0348 33.0672C11.286 32.7335 11.3699 32.6876 11.6321 32.74C12.0421 32.822 12.0286 32.6181 11.6098 32.4015C11.1688 32.1735 10.5759 31.6238 10.5759 31.443C10.5759 31.3624 10.5311 31.3242 10.4764 31.358C10.3651 31.4268 8.27227 29.3782 8.27227 29.2006C8.27227 29.0691 7.65803 28.258 7.46787 28.1387C7.39677 28.0939 7.36337 27.9927 7.39373 27.9136C7.424 27.8346 7.39855 27.7388 7.33698 27.7008C7.27552 27.6627 7.22515 27.5564 7.22515 27.4644C7.22515 27.3725 7.10735 27.1428 6.96337 26.9541C6.81939 26.7653 6.70159 26.57 6.70159 26.52C6.70159 26.3627 6.44337 25.8656 6.36127 25.8647C6.31803 25.8643 6.28274 25.9789 6.28274 26.1195C6.28274 26.4704 6.12096 26.5398 5.87551 26.2944C5.74243 26.1613 5.69091 26.0087 5.72944 25.8616C5.7775 25.6778 5.84389 25.6453 6.07604 25.6916C6.36054 25.7486 6.36222 25.7457 6.26326 25.3615C6.20839 25.1483 6.13688 24.856 6.10431 24.7121C6.07185 24.5681 6.01164 24.4032 5.97049 24.3456C5.80609 24.1149 5.51049 23.0612 5.48599 22.6178C5.47164 22.3587 5.45656 22.1112 5.45248 22.0681C5.44117 21.9487 5.0262 21.9743 5.0262 22.0943C5.0262 22.1519 4.93729 22.199 4.8286 22.199C4.68892 22.199 4.6175 22.1064 4.58473 21.8828C4.52703 21.4898 4.74442 21.2658 5.01792 21.4365C5.32326 21.6272 5.44504 21.4591 5.33981 20.9923C5.28442 20.747 5.28442 20.1689 5.33981 19.5843C5.39143 19.0388 5.41175 18.5706 5.38504 18.5438C5.31206 18.4708 4.57405 18.2233 4.4241 18.2215C4.35216 18.2206 4.29321 18.2657 4.29321 18.3215ZM35.9424 18.6071C35.8705 18.6342 35.8115 18.8172 35.8115 19.0139C35.8115 19.3258 35.8451 19.3717 36.0733 19.3717C36.277 19.3717 36.3351 19.318 36.3351 19.13C36.3351 18.8307 36.1178 18.5415 35.9424 18.6071ZM34.6968 18.7923C34.7183 18.8519 34.6933 18.9838 34.641 19.0855C34.5668 19.2297 34.5988 19.2904 34.786 19.3611C35.1398 19.4946 35.4123 19.3139 35.3728 18.9721C35.345 18.7323 35.2904 18.6906 34.9989 18.6876C34.8068 18.6856 34.6746 18.7314 34.6968 18.7923ZM34.2757 22.0144C34.2919 22.7124 34.3138 22.7816 34.555 22.8934C34.699 22.9602 34.9648 22.9916 35.1458 22.9632C35.4055 22.9224 35.5136 22.8254 35.6591 22.5028C35.7769 22.2417 35.9132 22.0943 36.0369 22.0943C36.1433 22.0943 36.2304 22.1324 36.2304 22.179C36.2304 22.2969 35.9237 22.6914 35.9196 22.5789C35.9154 22.4639 35.6021 22.7169 35.6021 22.8351C35.6021 22.976 36.3475 23.1421 36.5333 23.0427C36.6507 22.9799 36.6969 22.8221 36.686 22.5204C36.6552 21.6675 36.5781 21.5588 35.8953 21.4044C35.7975 21.3823 35.6906 21.4075 35.6579 21.4603C35.6242 21.5149 35.475 21.492 35.3124 21.4071C35.155 21.325 34.8534 21.2576 34.6422 21.2572L34.2583 21.2566L34.2757 22.0144ZM17.8534 21.7576C17.2022 21.804 17.1134 21.8547 17.3058 22.0703C17.5153 22.3051 17.5983 23.5752 17.4084 23.6387C17.3365 23.6627 17.2775 23.6313 17.2775 23.5689C17.2775 23.428 16.7894 23.4181 16.7034 23.5573C16.5988 23.7266 16.971 24.1886 17.211 24.187C17.5997 24.1846 17.9058 24.0645 17.9058 23.9145C17.9058 23.8349 17.9529 23.7697 18.0105 23.7697C18.0711 23.7697 18.1152 23.4332 18.1152 22.9697C18.1152 22.3851 18.157 22.1383 18.2703 22.0534C18.5152 21.87 18.3109 21.725 17.8534 21.7576ZM20.1833 21.7538C20.0036 21.7947 19.9379 21.9973 20.0637 22.1231C20.153 22.2123 20.14 23.6656 20.0472 23.9622C19.9752 24.1929 19.9938 24.205 20.3697 24.1727C20.7964 24.1359 20.9502 24.2933 20.7378 24.5492C20.5896 24.7279 20.6745 24.7756 21.1908 24.8033C21.5432 24.8222 21.5862 24.8005 21.5195 24.6377C21.3743 24.2832 21.4063 24.1353 21.6231 24.1602C21.9754 24.2008 22.2076 23.931 22.2643 23.4151C22.3098 23.002 22.28 22.8988 22.0492 22.668C21.8427 22.4615 21.7384 22.4233 21.5932 22.5011C21.4897 22.5565 21.3363 22.598 21.2522 22.5933C20.8046 22.5684 20.7843 22.5991 20.8209 23.2459C20.8502 23.7653 20.8275 23.8744 20.69 23.8744C20.5491 23.8744 20.5236 23.7148 20.5236 22.8334C20.5236 22.2609 20.4882 21.7745 20.445 21.7524C20.4019 21.7303 20.2841 21.731 20.1833 21.7538ZM24.2551 21.8332C23.9352 22.1531 24.0963 22.485 24.508 22.3544C24.6686 22.3034 24.704 22.2311 24.6523 22.0596C24.546 21.7069 24.4412 21.6471 24.2551 21.8332ZM34.6965 21.9619C34.628 22.2351 34.7838 22.4735 34.9598 22.3647C35.0198 22.3277 35.1675 22.1588 35.2881 21.9893L35.5074 21.6814L35.1336 21.6955C34.8317 21.7068 34.7477 21.758 34.6965 21.9619ZM4.03248 21.8865C4.06871 21.945 4.14211 21.9659 4.19572 21.9327C4.34096 21.843 4.31394 21.7801 4.12997 21.7801C4.04023 21.7801 3.99635 21.828 4.03248 21.8865ZM9.88096 21.9081C9.85017 21.9579 9.87447 22.0583 9.93489 22.1312C9.99541 22.2042 10.0637 22.646 10.0865 23.113C10.1244 23.8875 10.11 23.9669 9.92264 24.0159C9.80368 24.047 9.74787 24.1194 9.79007 24.1877C9.93824 24.4273 11.5954 24.131 11.6361 23.8575C11.6434 23.8092 11.6551 23.7265 11.6623 23.6736C11.6695 23.6209 11.7108 23.5423 11.7539 23.4992C11.7971 23.4559 11.8325 23.2061 11.8325 22.944C11.8325 22.558 11.7796 22.422 11.5544 22.2285C11.4015 22.0971 11.2247 21.986 11.1617 21.9815C11.0988 21.9771 10.9529 21.9533 10.8377 21.9286C10.385 21.8315 9.93426 21.8218 9.88096 21.9081ZM29.5987 21.85C29.4562 21.9923 29.5358 22.2086 29.7644 22.3004C29.9842 22.3887 29.986 22.3965 29.7906 22.4153C29.6754 22.4263 29.2513 22.4411 28.8482 22.4481C28.2488 22.4584 28.1239 22.4893 28.1632 22.6178C28.1894 22.7042 28.213 23.0105 28.2155 23.2984C28.2189 23.696 28.1821 23.822 28.0628 23.822C27.9447 23.822 27.8928 23.6533 27.8534 23.1414L27.8011 22.4608L27.4869 22.4971C27.1179 22.5398 27.0292 22.6013 27.1913 22.702C27.3038 22.772 27.3659 23.0948 27.3415 23.4817C27.3351 23.5825 27.2592 23.6649 27.1728 23.6649C27.0088 23.6649 26.9841 23.5495 27.0126 22.9193C27.0271 22.5995 26.9919 22.533 26.7871 22.4938C26.447 22.4289 25.1328 22.4762 25.0527 22.5564C25.0163 22.5928 24.9745 23.0575 24.9597 23.589C24.9345 24.4946 24.9472 24.5621 25.1627 24.6635C25.3064 24.731 25.5597 24.7384 25.8377 24.6834C26.1841 24.6146 26.2827 24.5484 26.2827 24.3848C26.2827 24.0019 26.0837 23.7697 25.7555 23.7697C25.5847 23.7697 25.445 23.7225 25.445 23.6649C25.445 23.6073 25.4804 23.5567 25.5236 23.5522C26.0188 23.5017 26.1737 23.3589 26.1765 22.9505C26.1776 22.7754 26.2294 22.7172 26.3613 22.7427C26.4621 22.7623 26.5452 22.8567 26.5459 22.9525C26.5466 23.0482 26.5787 23.1581 26.6172 23.1966C26.6556 23.2351 26.6618 23.3328 26.6307 23.4136C26.5997 23.4945 26.6038 23.6783 26.6399 23.8222C26.7046 24.08 26.7212 24.0838 27.7856 24.0838C28.902 24.0838 29.0814 24.0399 28.8929 23.8128C28.8321 23.7395 28.7971 23.4996 28.8152 23.2796C28.8416 22.9594 28.8863 22.8861 29.0392 22.9122C29.1442 22.9301 29.2919 22.8935 29.3672 22.831C29.4755 22.7411 29.5195 22.8192 29.5772 23.2038C29.623 23.5088 29.608 23.7324 29.5371 23.8033C29.3335 24.0068 29.4175 24.0838 29.843 24.0838C30.2419 24.0838 30.3891 23.932 30.1866 23.7293C30.1453 23.688 30.1021 23.2678 30.0907 22.7956C30.0794 22.3235 30.0661 21.9018 30.0612 21.8587C30.0503 21.7614 29.6938 21.7547 29.5987 21.85ZM12.2143 22.0399C12.1717 22.1507 12.2367 22.2445 12.4109 22.3239C12.7204 22.4649 12.8641 22.3639 12.7076 22.1154C12.557 21.8762 12.2926 21.8357 12.2143 22.0399ZM14.4626 22.3238C14.2093 22.5948 14.1707 22.696 14.258 22.8594C14.3173 22.9701 14.3459 23.1967 14.3215 23.3628C14.2971 23.529 14.3181 23.6649 14.3683 23.6649C14.4184 23.6649 14.4519 23.7239 14.4424 23.7958C14.3995 24.1265 14.4667 24.1621 15.1238 24.1559C15.7049 24.1505 15.8047 24.1211 15.8517 23.9415C15.8817 23.8269 15.8821 23.6944 15.8527 23.6467C15.7816 23.5319 15.4201 23.5358 15.3482 23.6523C15.3169 23.703 15.1962 23.7692 15.0802 23.7996C14.8898 23.8493 14.8691 23.8045 14.8691 23.341C14.8691 22.9421 14.9062 22.8272 15.0349 22.8272C15.1261 22.8272 15.1801 22.7684 15.155 22.6964C15.1298 22.6244 15.0324 22.5791 14.9386 22.5958C14.801 22.6203 14.7802 22.5647 14.8316 22.3079C14.9121 21.9056 14.851 21.9083 14.4626 22.3238ZM10.5759 22.8796C10.5759 23.3364 10.5349 23.5602 10.4512 23.5602C10.3826 23.5602 10.4179 23.6294 10.5298 23.7139C10.8501 23.9562 11.2016 23.9179 11.2181 23.6388C11.2493 23.1117 11.2393 22.8634 11.1736 22.5393C11.1178 22.2634 11.0547 22.199 10.8403 22.199C10.5847 22.199 10.5759 22.2216 10.5759 22.8796ZM18.9586 22.5117C18.7947 22.5505 18.6769 22.675 18.6267 22.8626C18.5623 23.1034 18.5883 23.1695 18.7771 23.2456C18.9025 23.2961 18.9454 23.3405 18.8722 23.3442C18.7989 23.3478 18.686 23.4672 18.6212 23.6094C18.4628 23.9568 18.6676 24.2365 18.9639 24.0779C19.1008 24.0047 19.2299 24.0079 19.3799 24.0882C19.7865 24.3058 19.9225 24.1437 19.8451 23.5336C19.8068 23.2315 19.7554 22.9136 19.7308 22.8272C19.6683 22.607 19.2605 22.4404 18.9586 22.5117ZM22.8011 22.573C22.4788 22.7479 22.4344 22.9457 22.6728 23.1436C22.8156 23.2621 22.8148 23.2957 22.6645 23.4618C22.4152 23.7372 22.6391 24.1275 22.9951 24.0381C23.1355 24.0028 23.3408 24.0224 23.4513 24.0816C23.5876 24.1545 23.6734 24.1548 23.7181 24.0823C23.7545 24.0237 23.8294 24.0037 23.8848 24.0379C23.9402 24.0722 24.1525 24.1156 24.3566 24.1346L24.7276 24.1691L24.6722 23.629C24.6417 23.3321 24.6147 22.9594 24.6121 22.8011C24.6078 22.5383 24.5729 22.5134 24.2147 22.5165C23.8658 22.5194 23.8424 22.5353 24.0053 22.6589C24.2087 22.8133 24.269 23.7076 24.0838 23.822C24.0262 23.8576 23.9791 23.8368 23.9791 23.7758C23.9791 23.7149 23.9084 23.6649 23.822 23.6649C23.7063 23.6649 23.6649 23.5441 23.6649 23.2058C23.6649 22.8333 23.6163 22.7147 23.4068 22.5775C23.1027 22.3782 23.1593 22.3787 22.8011 22.573ZM13.4916 22.5888C13.1877 22.621 13.0954 22.6828 13.0436 22.8893C13.0077 23.0323 13.0254 23.23 13.0828 23.3286C13.1403 23.4272 13.1888 23.4653 13.1906 23.4131C13.1956 23.2621 13.6126 23.6821 13.6126 23.8382C13.6126 24.03 13.3355 24.0172 13.2605 23.822C13.1687 23.5825 12.9594 23.6308 13.0365 23.8737C13.0873 24.0339 13.0646 24.0679 12.9388 24.0196C12.7629 23.9521 12.7434 23.8692 12.7307 23.1414C12.7228 22.6883 12.7094 22.6689 12.3822 22.6374C12.0573 22.606 11.9246 22.7424 12.1466 22.8796C12.3122 22.9819 12.2726 23.8311 12.0954 23.9781C12.0097 24.0493 11.9645 24.1481 11.9952 24.1976C12.053 24.2912 13.7882 24.2573 13.8848 24.1605C13.9151 24.1304 13.9605 23.9386 13.9859 23.7343C14.0261 23.41 13.9922 23.3394 13.7175 23.1772C13.3771 22.9761 13.3102 22.8272 13.5602 22.8272C13.6466 22.8272 13.7173 22.8744 13.7173 22.932C13.7173 22.9895 13.788 23.0367 13.8744 23.0367C13.9721 23.0367 14.0314 22.9378 14.0314 22.7749C14.0314 22.6309 13.996 22.5211 13.9529 22.5307C13.9098 22.5404 13.7021 22.5665 13.4916 22.5888ZM19.0295 23.0456C19.0712 23.2046 19.1092 23.2273 19.17 23.129C19.26 22.9833 19.2039 22.8272 19.0613 22.8272C19.0125 22.8272 18.9982 22.9255 19.0295 23.0456ZM21.3613 23.2984C21.3613 23.6998 21.3923 23.7697 21.5707 23.7697C21.7323 23.7697 21.7801 23.6998 21.7801 23.4641C21.7801 23.0529 21.6834 22.8272 21.5071 22.8272C21.4041 22.8272 21.3613 22.9655 21.3613 23.2984ZM22.9955 22.9929C22.9047 23.2293 22.9134 23.2466 23.089 23.1793C23.1754 23.1461 23.2461 23.0533 23.2461 22.9731C23.2461 22.7747 23.0741 22.7883 22.9955 22.9929ZM25.3403 23.0305C25.3403 23.2732 25.5283 23.4142 25.667 23.2754C25.7984 23.144 25.6707 22.8272 25.4862 22.8272C25.406 22.8272 25.3403 22.9187 25.3403 23.0305ZM34.7121 23.2464C34.5393 23.284 34.3026 23.3747 34.1861 23.4479C33.7562 23.7178 33.5639 24.5591 33.8732 24.8158C34.0763 24.9843 33.9842 25.1263 33.7172 25.0565C33.5616 25.0158 33.5079 25.0533 33.5079 25.2028C33.5079 25.3134 33.3937 25.637 33.2543 25.9219C32.941 26.5616 32.6702 27.2203 32.6702 27.3426C32.6702 27.3932 32.7409 27.4346 32.8272 27.4346C32.9136 27.4346 32.9843 27.3875 32.9843 27.3299C32.9843 27.1637 33.2614 27.2068 33.797 27.4565C34.4157 27.7448 34.5783 27.8929 34.4345 28.0368C34.3614 28.1099 34.3639 28.1665 34.4421 28.2149C34.5912 28.307 34.9738 28.185 34.9738 28.0455C34.9738 27.986 35.0418 27.7889 35.1248 27.6075C35.7424 26.2574 35.8738 25.6127 35.4619 25.9546C35.3041 26.0856 34.6656 25.8917 34.368 25.6224C34.2602 25.5248 34.1168 25.445 34.0493 25.445C33.9819 25.445 33.9267 25.3928 33.9267 25.329C33.9267 25.2575 34.0272 25.2381 34.1885 25.2787C34.4999 25.3568 34.5229 25.2257 34.2939 24.6775C34.146 24.3235 34.1503 24.2885 34.3737 24.0287C34.6009 23.7646 34.6288 23.7589 35.106 23.879C35.3979 23.9525 35.6021 24.0635 35.6021 24.1486C35.6021 24.2281 35.6492 24.2932 35.7068 24.2932C35.8653 24.2932 35.8323 24.6358 35.6485 24.8981C35.5589 25.0262 35.3905 25.1309 35.2744 25.1309C34.8839 25.1309 35.096 25.4808 35.5427 25.5736C35.9854 25.6656 36.1678 25.5434 36.0678 25.2218C36.0381 25.1262 36.0853 25.0239 36.1749 24.9895C36.4898 24.8687 36.2747 23.9088 35.8522 23.5489C35.5593 23.2994 35.0679 23.169 34.7121 23.2464ZM22.9976 23.5047C23.0333 23.5977 23.1073 23.6589 23.1621 23.6405C23.3191 23.5883 23.2741 23.4067 23.0949 23.3693C22.983 23.3461 22.9528 23.3881 22.9976 23.5047ZM3.90054 23.8776C3.6264 23.9878 3.5862 24.3453 3.83698 24.4416C3.93164 24.4778 4.01635 24.4947 4.02525 24.479C4.08117 24.3797 4.29321 23.8561 4.29321 23.8171C4.29321 23.7498 4.17227 23.7684 3.90054 23.8776ZM25.2356 24.3979C25.2356 24.4555 25.3742 24.5026 25.5436 24.5026C25.713 24.5026 25.8806 24.4555 25.9163 24.3979C25.9548 24.3356 25.8301 24.2932 25.6083 24.2932C25.4034 24.2932 25.2356 24.3403 25.2356 24.3979ZM25.5893 25.4658C25.5622 25.5095 25.591 25.6406 25.6533 25.757C25.7541 25.9454 25.7351 25.9686 25.4806 25.9686C25.3154 25.9686 25.0748 26.0836 24.9104 26.241L24.6261 26.5134L24.444 26.2355C24.0642 25.6558 23.349 26.189 23.4128 27.0045C23.4522 27.5085 23.6655 27.6868 24.1258 27.6005C24.5266 27.5253 24.8088 27.1926 24.5877 27.0559C24.5189 27.0134 24.4441 27.0342 24.4216 27.1019C24.3703 27.2557 24.0154 27.2639 23.9224 27.1134C23.8231 26.9528 23.9227 26.8884 24.3422 26.8421C24.6215 26.8113 24.7121 26.8404 24.7121 26.9609C24.7121 27.0486 24.7592 27.1204 24.8168 27.1204C24.8744 27.1204 24.9215 27.2365 24.9215 27.3782C24.9215 27.6215 24.9537 27.6357 25.4921 27.6292C26.1389 27.6216 26.5004 27.4381 26.3179 27.2103C26.2552 27.1321 26.1963 26.7189 26.1868 26.2921C26.1773 25.8654 26.147 25.4796 26.1194 25.4349C26.0571 25.3341 25.6563 25.3574 25.5893 25.4658ZM16.4348 25.6082C16.3446 25.7168 16.3062 26.0498 16.3198 26.603L16.3402 27.4346H16.0236C15.8106 27.4346 15.7068 27.3826 15.7068 27.276C15.7068 27.1889 15.662 27.0357 15.6071 26.9357C15.4659 26.6779 15.2121 26.0632 15.1322 25.7854C15.065 25.552 14.7766 25.4528 14.7513 25.6545C14.723 25.8813 14.5869 26.2517 14.3926 26.6315C14.3091 26.7946 14.2409 26.9929 14.2409 27.0724C14.2409 27.1517 14.1117 27.3364 13.9539 27.4827L13.667 27.7487H14.1796C14.6637 27.7487 14.6828 27.7383 14.5242 27.5631C14.2956 27.3105 14.4498 27.095 14.8282 27.1382C15.0862 27.1677 15.128 27.2153 15.1112 27.4608C15.0925 27.7346 15.1143 27.7487 15.5562 27.7487C15.8479 27.7487 16.021 27.7019 16.021 27.6231C16.021 27.5254 16.0489 27.5254 16.1466 27.6231C16.2858 27.7622 17.0681 27.7977 17.0681 27.6649C17.0681 27.6189 17.0236 27.5364 16.9691 27.4817C16.9147 27.427 16.8656 27.1466 16.8601 26.8587C16.8408 25.846 16.8405 25.8467 17.0925 25.8828C17.3043 25.9132 17.3286 25.9844 17.363 26.6754C17.3901 27.2206 17.365 27.4346 17.2739 27.4346C17.1821 27.4346 17.1781 27.472 17.2595 27.57C17.3687 27.7015 17.8434 27.7085 21.3299 27.6297C22.2123 27.6098 22.2603 27.5541 22.0926 26.7459C21.9995 26.2976 21.9323 26.1864 21.7224 26.1337C21.4109 26.0555 20.9216 26.1643 21.0017 26.2939C21.0335 26.3454 21.0096 26.3875 20.9486 26.3875C20.7991 26.3875 20.8072 26.6704 20.9594 26.7644C21.0284 26.8071 21.1655 26.7354 21.2761 26.5987C21.3835 26.4662 21.5009 26.3874 21.537 26.4236C21.5732 26.4597 21.382 26.695 21.1121 26.9463C20.8422 27.1977 20.6021 27.3723 20.5787 27.3343C20.5085 27.2208 20.4866 25.9038 20.553 25.7962C20.6532 25.6341 20.4537 25.4092 20.2716 25.4792C20.1282 25.5342 20.1114 25.6841 20.1584 26.4891C20.2041 27.2713 20.1874 27.4346 20.0615 27.4346C19.8542 27.4346 19.7729 27.1267 19.7919 26.4127C19.8187 25.4008 19.8323 25.4357 19.4212 25.4634C19.129 25.4831 19.0679 25.522 19.1288 25.6499C19.1712 25.7388 19.2232 26.1768 19.2444 26.6231C19.2917 27.6196 19.1053 27.7241 19.0019 26.759L18.9295 26.0835L18.3915 26.0522C18.0117 26.0302 17.8534 25.9773 17.8534 25.8726C17.8534 25.791 17.9189 25.7024 17.9989 25.6758C18.0789 25.6491 18.1152 25.6745 18.0795 25.7323C17.9963 25.867 18.7584 25.9955 18.8858 25.8682C18.938 25.8159 18.9528 25.7004 18.9186 25.6114C18.8358 25.3957 17.6998 25.426 17.5259 25.6485C17.4239 25.779 17.3835 25.7754 17.2305 25.6223C17.0085 25.4004 16.613 25.3934 16.4348 25.6082ZM22.6178 25.8115C22.6178 25.9652 22.5637 26.0625 22.4869 26.0471C22.415 26.0328 22.3725 26.0916 22.3925 26.178C22.4125 26.2644 22.44 26.5564 22.4535 26.8268C22.4906 27.5698 22.8159 27.8498 23.1982 27.4675C23.3638 27.3019 23.361 27.2859 23.1533 27.2091C22.9781 27.1443 22.932 27.0392 22.932 26.7049C22.932 26.3526 22.9666 26.2827 23.1414 26.2827C23.2566 26.2827 23.3508 26.2356 23.3508 26.178C23.3508 26.1204 23.3026 26.0733 23.2439 26.0733C23.185 26.0733 23.0833 25.9555 23.0176 25.8115C22.9521 25.6676 22.8352 25.5498 22.758 25.5498C22.6782 25.5498 22.6178 25.6626 22.6178 25.8115ZM33.5328 26.195C33.3251 26.4026 33.3821 26.6549 33.6717 26.81C33.9019 26.9331 33.9545 26.932 34.0392 26.8015C34.0935 26.7177 34.1259 26.5314 34.1109 26.3875C34.0804 26.0931 33.7461 25.9817 33.5328 26.195ZM5.0262 26.3351C5.0262 26.4215 5.09688 26.4922 5.18326 26.4922C5.26965 26.4922 5.34033 26.4215 5.34033 26.3351C5.34033 26.2487 5.26965 26.178 5.18326 26.178C5.09688 26.178 5.0262 26.2487 5.0262 26.3351ZM25.3431 26.3823C25.1936 26.6615 25.3024 27.2252 25.5057 27.2252C25.6443 27.2252 25.7126 26.8967 25.6581 26.4922C25.6196 26.2058 25.4662 26.1524 25.3431 26.3823ZM17.8667 26.4428C17.6946 26.8916 17.8356 27.4346 18.1244 27.4346C18.5071 27.4346 18.5342 26.3582 18.1528 26.3034C18.0235 26.2847 17.9054 26.3423 17.8667 26.4428ZM23.8809 26.432C23.7689 26.5668 23.7755 26.6057 23.9195 26.661C24.1481 26.7486 24.2308 26.6539 24.1117 26.4411C24.0253 26.2865 24.0023 26.2856 23.8809 26.432ZM34.4477 26.656C34.3094 27.0196 34.318 27.0875 34.5112 27.1616C34.7754 27.263 34.8287 27.2401 34.9502 26.9734C35.0435 26.7686 35.0305 26.6905 34.8802 26.5546C34.6298 26.3279 34.5668 26.3426 34.4477 26.656ZM14.6248 26.6667C14.4927 26.7988 14.5554 26.911 14.7612 26.911C14.9014 26.911 14.948 26.8608 14.907 26.7539C14.8425 26.586 14.7379 26.5536 14.6248 26.6667ZM21.32 27.0593C21.3551 27.1505 21.4297 27.2252 21.4859 27.2252C21.6236 27.2252 21.5374 26.9871 21.3809 26.935C21.3043 26.9094 21.281 26.9574 21.32 27.0593ZM32.3789 27.7532C32.1168 27.8584 31.7065 28.6789 31.8312 28.8482C31.8736 28.9058 31.9397 29.0841 31.978 29.2444C32.0175 29.4098 32.1597 29.587 32.3066 29.6539C32.4489 29.7188 32.5655 29.8409 32.5655 29.925C32.5655 30.1811 33.657 30.0409 33.9726 29.7443C34.7378 29.0254 34.1239 27.6341 33.0487 27.6506C32.8117 27.6543 32.5103 27.7004 32.3789 27.7532ZM6.30777 28.1635C5.54075 28.5735 5.41667 28.6878 5.55614 28.8558C5.61866 28.9312 5.72944 28.9699 5.80243 28.9419C5.97698 28.8749 6.23007 29.1702 6.07845 29.2639C5.89007 29.3803 5.95824 29.6335 6.17803 29.6335C6.29321 29.6335 6.38745 29.5979 6.38745 29.5544C6.38745 29.5108 6.51991 29.4166 6.6819 29.3448C7.19405 29.1181 7.43384 28.8248 7.39311 28.4747C7.36159 28.204 7.0819 27.8501 6.91101 27.8645C6.88222 27.8669 6.6107 28.0015 6.30777 28.1635ZM32.5393 28.2397C32.4104 28.2734 32.356 28.3925 32.356 28.6411C32.356 29.2987 33.3446 29.789 33.7554 29.3352C33.909 29.1654 33.9128 29.1071 33.7859 28.8624C33.4877 28.2877 33.099 28.0935 32.5393 28.2397ZM22.5584 29.013C22.4574 29.1246 22.4055 29.2467 22.4431 29.2842C22.4805 29.3218 22.4528 29.4234 22.3813 29.5101C22.2777 29.6355 22.2779 29.6766 22.3822 29.7116C22.5378 29.764 22.5522 30.1452 22.4068 30.3665C22.3151 30.5061 22.2923 30.5061 22.2014 30.3665C22.145 30.2801 22.1247 30.1269 22.156 30.0262C22.2466 29.7352 22.0397 29.8136 21.8798 30.1309C21.8 30.2892 21.7212 30.4387 21.7046 30.463C21.6881 30.4871 21.5603 30.3997 21.4208 30.2685C21.166 30.0291 21.1621 29.7382 21.4136 29.7382C21.4877 29.7382 21.5754 29.6676 21.6086 29.5812C21.7701 29.1603 21.2731 28.855 20.6891 29.0163C20.389 29.0992 20.3142 29.1711 20.3142 29.3767C20.3142 29.5179 20.267 29.6335 20.2094 29.6335C20.1519 29.6335 20.1047 29.571 20.1047 29.4947C20.1047 29.2904 19.6692 28.9383 19.4003 28.9253C19.073 28.9093 18.7008 29.4491 18.791 29.8088C18.8615 30.0894 19.2283 30.4616 19.4404 30.4678C19.6802 30.4747 19.3349 30.9931 19.09 30.9939C18.872 30.9948 18.6697 31.1653 18.7689 31.2646C18.8706 31.3663 19.7508 30.9534 19.9252 30.7223C20.0273 30.5868 20.1173 30.3079 20.1249 30.1024C20.1353 29.8265 20.1778 29.7439 20.2875 29.786C20.3691 29.8173 20.4793 29.843 20.5322 29.843C20.6971 29.843 20.6378 30.0812 20.4134 30.3199C20.1465 30.604 20.2257 31.0512 20.5587 31.1405C20.9947 31.2575 21.243 31.2021 21.4472 30.9424C21.6062 30.7404 21.7498 30.6806 22.0758 30.6806C22.4338 30.6806 22.5037 30.7166 22.532 30.9152C22.5899 31.3204 22.8806 31.2539 23.0613 30.7941C23.1933 30.4578 23.1996 30.3535 23.0929 30.265C23.0027 30.1902 22.9746 29.9577 23.0055 29.5416C23.0565 28.8524 22.8861 28.6509 22.5584 29.013ZM17.5482 29.1789C17.2845 29.3217 17.2667 29.3574 17.4173 29.4417C17.6668 29.5813 17.6689 30.8364 17.4199 30.9758C17.1047 31.1522 17.3675 31.2875 17.9294 31.2382C18.5694 31.1821 18.6089 31.1594 18.4107 30.9613C18.303 30.8534 18.2668 30.5662 18.2785 29.9091C18.2936 29.0536 18.2826 29.0055 18.0739 29.0094C17.9527 29.0117 17.716 29.088 17.5482 29.1789ZM20.7937 29.2011C20.7069 29.3415 20.8581 29.7488 20.9819 29.7082C21.1652 29.6479 21.1816 29.2485 21.0037 29.1802C20.916 29.1466 20.8216 29.156 20.7937 29.2011ZM19.3717 29.6859C19.3717 30.1271 19.4868 30.2898 19.6324 30.0542C19.7196 29.9131 19.5801 29.2147 19.4648 29.2147C19.4136 29.2147 19.3717 29.4267 19.3717 29.6859ZM31.3014 29.6769C30.4854 29.9574 30.1071 30.6987 30.4445 31.3561C30.7434 31.9386 31.2112 32.1815 31.8404 32.0809C32.2425 32.0166 32.7579 31.5774 32.7865 31.2747C32.813 30.9935 32.7505 30.6217 32.6612 30.5288C32.6085 30.4741 32.5655 30.3467 32.5655 30.2458C32.5655 30.1359 32.4078 29.9888 32.1728 29.8795C31.9569 29.779 31.7565 29.6634 31.7277 29.6226C31.6988 29.5818 31.5069 29.6062 31.3014 29.6769ZM30.964 30.3426C30.8658 30.4512 30.7858 30.607 30.7863 30.6889C30.7878 30.9339 31.5104 31.6231 31.7658 31.6231C32.3247 31.6231 32.4297 30.9789 31.9416 30.544C31.5153 30.1642 31.1867 30.0966 30.964 30.3426ZM20.7539 30.6231C20.7539 30.8757 20.8019 30.9948 20.9038 30.9948C21.1038 30.9948 21.2106 30.6926 21.0825 30.4894C20.8914 30.1864 20.7539 30.2423 20.7539 30.6231ZM8.96578 30.7372C8.84693 31.0468 8.89782 31.2042 9.11688 31.2042C9.28997 31.2042 9.32662 31.1481 9.30012 30.9243C9.2618 30.6005 9.06127 30.4883 8.96578 30.7372ZM29.8714 30.9122C29.7432 30.9741 29.6119 31.1076 29.5797 31.2088C29.5476 31.31 29.4051 31.4219 29.2633 31.4576C29.1214 31.4932 29.0053 31.5845 29.0053 31.6607C29.0053 31.7367 28.8872 31.8526 28.7432 31.9183L28.481 32.0377L28.6907 32.5896C28.8061 32.8931 28.9004 33.1559 28.9004 33.1737C28.9005 33.1915 28.9477 33.177 29.0053 33.1414C29.0628 33.1058 29.1114 32.8792 29.1132 32.6378C29.1159 32.2857 29.1715 32.1589 29.3947 31.996C29.5667 31.8705 29.6872 31.8367 29.7109 31.9075C29.7319 31.9704 29.868 32.1559 30.0133 32.3198C30.4841 32.8506 30.6376 33.1209 30.4952 33.1683C30.3428 33.2191 30.3242 33.4693 30.4662 33.5571C30.5622 33.6165 31.5183 32.7792 31.5183 32.6357C31.5183 32.5971 31.3551 32.5655 31.1555 32.5655C30.8848 32.5655 30.7621 32.5057 30.6721 32.3299C30.6057 32.2002 30.4544 32.0171 30.3357 31.9227C30.1768 31.7964 30.1181 31.6245 30.1124 31.2686C30.1082 31.0031 30.1047 30.7889 30.1047 30.7927C30.1047 30.7965 29.9997 30.8502 29.8714 30.9122ZM7.82347 31.7926C7.74745 31.8686 8.00211 32.1466 8.14787 32.1466C8.20284 32.1466 8.27248 32.0524 8.30264 31.9372C8.34536 31.7738 8.30578 31.7278 8.12284 31.7278C7.99384 31.7278 7.85918 31.757 7.82347 31.7926ZM10.1556 32.0157C10.1549 32.1165 10.126 32.3045 10.0913 32.4335C10.0427 32.615 10.0846 32.6893 10.276 32.7618C10.7868 32.9551 10.9997 32.3111 10.5272 32.0016C10.2015 31.7881 10.1574 31.7898 10.1556 32.0157ZM9.60735 32.9927C9.3819 33.124 9.37206 33.3343 9.58316 33.5095C9.71332 33.6175 9.77981 33.6073 9.94965 33.4537C10.1998 33.2274 10.216 33.0293 9.99143 32.9432C9.79342 32.8671 9.83122 32.8623 9.60735 32.9927ZM20.7295 34.312C20.7247 34.5766 20.3446 35.008 20.1741 34.9424C20.0967 34.9128 19.9716 34.9266 19.8962 34.9732C19.789 35.0395 19.8097 35.1221 19.9907 35.3523C20.1425 35.5453 20.2166 35.7742 20.2057 36.0171C20.181 36.571 20.1886 36.5822 20.4676 36.3995C20.7872 36.1901 20.9416 36.1878 21.3232 36.387C21.603 36.5331 21.6253 36.53 21.6558 36.34C21.6738 36.2281 21.6322 36.0311 21.5632 35.9022C21.4523 35.695 21.4757 35.6342 21.7661 35.3748C22.2122 34.9761 22.1855 34.8495 21.6664 34.9015C21.2866 34.9394 21.225 34.9135 21.1179 34.6711C21.0515 34.5209 20.9378 34.3356 20.8652 34.2596C20.7565 34.1458 20.7324 34.1551 20.7295 34.312Z" fill="black"/>
</svg>
